<svg xmlns="http://www.w3.org/2000/svg" width="713" height="319" viewBox="0 0 713 319">
    <g fill="none" fill-rule="evenodd">
        <path fill="#E0E4F0" fill-rule="nonzero" d="M6.458 250.782A6.036 6.036 0 0 1 .74 244.75a6.036 6.036 0 0 1 5.718-6.031" opacity=".5"/>
        <path fill="#8184C4" fill-rule="nonzero" d="M597.412 275.594l-.475.23c-4.918 2.33-7.458 1.936-12.195-.263a49.917 49.917 0 0 1-12.228-7.614 25.558 25.558 0 0 1-8.867-15.606 5.47 5.47 0 0 1 .656-3.955 4.405 4.405 0 0 1 5.13-1.067 15.146 15.146 0 0 1 4.54 3.282 5.146 5.146 0 0 0 2 1.296 1.9 1.9 0 0 0 2.114-.705c.64-1.116-.442-2.396-1.426-3.282-2.278-1.904-4.409-3.003-6.802-4.677a22.554 22.554 0 0 1-7.409-7.976 11.762 11.762 0 0 1-.245-10.436 6.562 6.562 0 0 1 2.163-2.495 7.728 7.728 0 0 1 5.753-.574 54.412 54.412 0 0 0 5.77 1.345c4.639.493 6.474-2.79 6.376-7.072 0-2.872-.984-5.662-1.147-8.517a13.132 13.132 0 0 1 6.753-12.587c4.573-2.166 10.949-.098 12.588 4.693 1.77 5.202-2.279 11.028.393 16a15.058 15.058 0 0 0 4.393 4.809c2.557 1.64 6.228-.28 9.195-.148a2.751 2.751 0 0 1 1.836.59c.312.381.51.842.574 1.33a11.036 11.036 0 0 1-3.279 10.027c-3.065 2.806-8.392 4.233-9.703 8.615-.803 2.724-.459 9.501 3.868 8.812 1.64-.262 2.705-1.854 4.262-2.396a4.359 4.359 0 0 1 5 2.478 7.573 7.573 0 0 1-.148 5.94 24.778 24.778 0 0 1-5.688 7.697c-4.704 4.694-7.704 9.24-13.752 12.226z"/>
        <path stroke="#191C3C" d="M590.97 212.332v105.715M603.214 230.646l-12.244 12.275-12.243-12.275M603.214 255.278l-12.244 12.275-12.243-12.275"/>
        <path fill="#191C3C" fill-rule="nonzero" d="M616.294 220.8a2.751 2.751 0 0 0-1.836-.59c-2.966-.132-6.556 1.722-9.195.147a15.058 15.058 0 0 1-4.392-4.808c-1.935-3.594-.345-7.664 0-11.602a5.308 5.308 0 0 0-4.131 1.985 7.786 7.786 0 0 0-.918 5.547c1.05 8.5 6.016 16.164 12.424 21.826.541.476 1.099.935 1.64 1.394a23.439 23.439 0 0 0 3.638-2.543 11.036 11.036 0 0 0 3.278-10.027 2.627 2.627 0 0 0-.508-1.329z" opacity=".3"/>
        <path fill="#DCA5F9" fill-rule="nonzero" d="M647.896 243.988l-.656.311c-6.802 3.283-10.424 2.725-17.046-.344a69.009 69.009 0 0 1-17.096-10.65c-6.409-5.662-11.375-13.326-12.424-21.826a7.786 7.786 0 0 1 .918-5.547 6.223 6.223 0 0 1 7.195-1.493 21.834 21.834 0 0 1 6.344 4.628 7.227 7.227 0 0 0 2.802 1.805 2.62 2.62 0 0 0 2.95-.985c.886-1.64-.622-3.282-1.999-4.496-3.18-2.659-6.163-4.201-9.507-6.564a31.493 31.493 0 0 1-10.359-11.143 16.428 16.428 0 0 1-.426-14.77 8.924 8.924 0 0 1 3.049-3.478c2.47-1.306 5.35-1.6 8.031-.82a76.567 76.567 0 0 0 8.065 1.887c6.556.689 9.047-3.89 8.916-9.847-.082-4.02-1.377-7.926-1.639-11.93-.41-7.056 3.065-14.572 9.458-17.592 6.392-3.02 15.292-.13 17.587 6.564 2.475 7.27-3.196 15.426.557 22.368a21.21 21.21 0 0 0 6.147 6.728c3.573 2.199 8.703-.394 12.85-.197a3.734 3.734 0 0 1 2.574.82c.437.53.715 1.173.803 1.855a15.437 15.437 0 0 1-4.655 14.03c-4.295 3.906-11.736 5.908-13.572 12.03-1.13 3.806-.64 13.308 5.41 12.34 2.261-.361 3.785-2.61 5.965-3.282a6.046 6.046 0 0 1 6.983 3.462 10.563 10.563 0 0 1-.197 8.205c-1.639 4.185-4.917 7.533-7.966 10.766-6.409 6.63-10.605 12.98-19.062 17.165z"/>
        <path stroke="#191C3C" d="M638.897 155.52v162.527M656.026 181.136l-17.129 17.15-17.128-17.15M656.026 215.582l-17.129 17.148-17.128-17.148M27.258 318.047h40.977a6.265 6.265 0 0 1 6.261-6.269 6.265 6.265 0 0 1 6.261 6.27M77.824 312.583a6.265 6.265 0 0 1 6.26-6.253M712.541 318.047h-40.977a6.265 6.265 0 0 0-6.261-6.269 6.265 6.265 0 0 0-6.262 6.27"/>
        <path stroke="#191C3C" d="M661.975 312.583a6.265 6.265 0 0 0-6.26-6.27 6.265 6.265 0 0 0-6.262 6.27"/>
        <path fill="#DCA5F9" fill-rule="nonzero" d="M139.568 317.752s-1.312.607 0 0zm11.867-11.586c-12.244-12.685-27.045-23.417-43.993-28.275-16.948-4.857-36.224-3.282-50.812 6.564a108.424 108.424 0 0 0 82.905 33.215c4.475.295 17.44.492 21.062-1.641 1.033-.591-1.983-3.857-4.573-6.564-.787-.739-3.77-2.462-4.59-3.299z"/>
        <path fill="#191C3C" fill-rule="nonzero" d="M156.057 309.58c-.82-.854-3.803-2.577-4.622-3.414-12.244-12.685-27.045-23.417-43.993-28.275a67.683 67.683 0 0 0-25.259-2.346 67.041 67.041 0 0 1 28.127 7.319c15.342 7.81 27.602 20.71 37.142 35.052 5.163 0 10.949-.476 13.112-1.789 1.099-.59-1.917-3.856-4.507-6.548z" opacity=".2"/>
        <path fill="#3C4A8D" fill-rule="nonzero" d="M166.055 279.5c2.426 7.089 5.77 17.624 2.77 24.484-2.36 5.415-6.556 13.226-11.916 12.143-4.556-5.957-13.768-18.051-19.669-22.728-4.917-3.938-12.506-8.041-17.161-12.275-11.834-10.716-16.39-25.042-22.947-39.598a198.496 198.496 0 0 1 35.404 6.728c7.54 2.15 15.194 4.923 21.046 10.125 6.18 5.514 9.785 13.293 12.473 21.12z"/>
        <path fill="#F5F7F9" fill-rule="nonzero" d="M140.42 293.826c-4.147-4.727-10.9-10.125-14.752-15.098-8.195-10.486-10.867-22.547-13.8-35.2a197.59 197.59 0 0 0-14.752-2.002c6.556 14.556 11.129 28.882 22.947 39.598 4.655 4.234 12.244 8.337 17.16 12.275a82.453 82.453 0 0 1 9.835 10.388 72.212 72.212 0 0 0-6.638-9.961z" opacity=".08"/>
        <path fill="#8184C4" fill-rule="nonzero" d="M172.005 241.707c4.016 10.978 3.967 22.974 3.868 34.675 0 4.447 1.082 11.782 0 16.114a31.602 31.602 0 0 1-5.376 10.06c-1.901 2.658-4.18-.509-5.835-3.102-1.655-2.592-4.278-6.646-2.918-5.694-1.966-6.777-3.081-11.06-4.917-17.87a112.893 112.893 0 0 1-4.393-15.968c-2.31-13.44.328-27.159 2.984-40.533a49.062 49.062 0 0 1 16.587 22.318z"/>
        <path fill="#191C3C" fill-rule="nonzero" d="M65.317 286.884c15.277-.541 30.176 0 44.977 4.152a116.322 116.322 0 0 1 38.174 19.298c.606.443 1.18-.574.59-1.033a115.502 115.502 0 0 0-38.502-19.233c-14.932-4.218-29.848-4.497-45.239-3.545-.23 0-.246.378 0 .361zM102.131 245.99a122.01 122.01 0 0 1 33.29 22.974c10.44 10.306 17.456 22.63 25.39 34.806a.33.33 0 1 0 .573-.328c-13.424-25.223-32.438-46.474-59.105-57.748-.18-.082-.345.18-.148.263v.033zM156.057 224.64c7.999 23.877 17.358 46.72 11.932 72.402-.098.525.722.755.82.23 5.065-24.402-2.278-50.577-12.555-72.714 0-.099-.23 0-.197 0v.082z"/>
        <path fill="#191C3C" fill-rule="nonzero" d="M76.283 295.467a50.836 50.836 0 0 1 5.114-4.825 60.109 60.109 0 0 1 5.982-3.66c.148 0 0-.344-.114-.295a23.377 23.377 0 0 0-11.097 8.698l.115.082zM88.51 301.49c4.278-7.763 10.458-10.027 18.899-10.946a.459.459 0 1 0-.115-.903c-7.982 1.05-15.948 3.446-18.915 11.799 0 .082.099.131.131 0v.05zM103.852 302.523c4.917-3.824 9.835-9.633 16.735-7.844a.28.28 0 1 0 .148-.542c-6.9-1.887-12.49 3.873-17.08 8.206-.147.13 0 .311.197.196v-.016zM118.85 310.548c4.556-5.744 11.178-11.044 18.734-7.073.443.23.82-.443.394-.673-7.524-3.988-15.326 1.034-19.309 7.614 0 .099.099.23.18.132zM83.888 277.202c1 4.923 5.229 7.86 9.146 10.453.279.197.541-.279.262-.46-3.983-2.543-7.802-5.283-9.13-10.075 0-.18-.31-.098-.278 0v.082zM99.984 278.285a32.69 32.69 0 0 0 8.572 12.177c.312.279.754-.181.46-.444a40.808 40.808 0 0 1-8.868-11.848H100l-.016.115z"/>
        <path fill="#191C3C" fill-rule="nonzero" d="M113.637 283.668a21.34 21.34 0 0 0 3.508 6.252c1.115 1.395 2.82 4.103 4.491 4.775a.459.459 0 0 0 .426-.114l.164-.165a.443.443 0 0 0-.098-.689l-.18-.131a.377.377 0 0 0-.46 0l-.147.164c-.115.131-.098.394.115.427.574.082-1.82-2.626-1.754-2.56a45.114 45.114 0 0 1-2.049-2.281 30.15 30.15 0 0 1-3.802-5.826c0-.115-.246 0-.214.082v.066zM125.03 289.444a49.208 49.208 0 0 0 12.309 13.292c.54.427 1.344-.344.77-.787a95.599 95.599 0 0 1-12.736-12.767c-.164-.197-.459 0-.344.262zM109.212 262.088c8.572-.574 15.817-.098 23.34 4.595.492.295.951-.476.46-.788-6.557-4.316-16.13-6.876-23.85-4.233-.229 0-.212.443 0 .426h.05zM122.554 276.316c4.03-.222 8.07.06 12.03.837a83.835 83.835 0 0 1 10.622 3.512c.46.18.656-.575.197-.739-7.13-2.658-15.178-5.727-22.947-3.807a.098.098 0 0 0 0 .197h.098zM138.338 288.722c2.862.161 5.713.48 8.54.952a12.39 12.39 0 0 1 7.507 4.71c.344.393.934-.18.59-.575a12.57 12.57 0 0 0-7.032-4.693 35.609 35.609 0 0 0-9.605-.706.164.164 0 0 0 0 .312z"/>
        <path fill="#191C3C" fill-rule="nonzero" d="M126.685 252.226a29.02 29.02 0 0 0 3.032 8.943c.754 1.74 1.508 4.923 3.704 5.235.18 0 .394-.197.213-.36-3.934-3.283-4.13-9.667-6.687-13.884a.147.147 0 0 0-.262 0v.066zM139.47 256.115a97.044 97.044 0 0 0 6.392 24.796c.147.377.77.23.623-.164a180.55 180.55 0 0 1-6.704-24.616c0-.164-.328-.147-.312 0v-.016zM153.156 273.904c0 7.187 1.803 14.523 2.917 21.595 0 .558.918.345.836-.213a632.804 632.804 0 0 1-3.376-21.432c0-.213-.377-.164-.377 0v.05zM153.5 238.178a82.65 82.65 0 0 1 12.522 18.84c.263.574 1.115 0 .853-.476a64.1 64.1 0 0 0-12.949-18.79.301.301 0 1 0-.426.426z"/>
        <path fill="#191C3C" fill-rule="nonzero" d="M169.973 239.41c-2.41 5.48-2.869 12.405-3.197 18.33 0 .541.804.541.82 0a90.803 90.803 0 0 1 1.13-10.11c.46-2.723 1.296-5.398 1.64-8.204a.197.197 0 0 0-.36-.099l-.033.082zM160.63 260.053a114.93 114.93 0 0 1 8.818 18.33c0 .181.328 0 .295-.13a38.879 38.879 0 0 0-8.85-18.397c-.116-.147-.361 0-.263.197zM170.186 278.712a77.175 77.175 0 0 1 5.327-12.177c.196-.311-.295-.59-.476-.279a34.238 34.238 0 0 0-5.015 12.44c0 .098.13.098.164 0v.016z"/>
        <g fill-rule="nonzero">
            <path fill="#FFF" d="M248.747 1.543h217.998c1.7 0 3.33.676 4.531 1.879a6.42 6.42 0 0 1 1.877 4.537v310.154H242.338V7.959a6.413 6.413 0 0 1 6.409-6.416z"/>
            <path fill="#D988FF" d="M248.747.558h217.998c1.7 0 3.33.676 4.531 1.88a6.42 6.42 0 0 1 1.877 4.536v9.174H242.338v-9.19a6.413 6.413 0 0 1 6.409-6.4z"/>
            <path fill="#C325FE" d="M264.892 9.337a2.03 2.03 0 1 1-3.475 1.433 2.037 2.037 0 0 1 1.459-3.467 2.034 2.034 0 0 1 2.016 2.034zM272.497 9.337a2.034 2.034 0 1 1-2.049-2.034 2.031 2.031 0 0 1 2.05 2.034zM280.102 9.337a2.03 2.03 0 1 1-3.475 1.433 2.037 2.037 0 0 1 1.46-3.467 2.034 2.034 0 0 1 2.015 2.034z"/>
            <path fill="#F1F2F2" d="M349.452 120.435h84.036v22.072h-84.036z"/>
            <path fill="#F5F7F9" d="M349.452 251.471h84.036v60.866h-84.036z"/>
            <path fill="#E6E7E8" d="M338.388 312.337H286.66v-15.36h51.73z"/>
            <path fill="#F1F2F2" d="M349.452 179.298h84.036v11.044h-84.036z"/>
            <path fill="#FFFFFE" d="M367.777 182.974h56.515v3.676h-56.515z"/>
            <path fill="#F0D480" d="M283.922 42.946h149.566v57.206H283.922z"/>
            <path fill="#C325FE" d="M242.338 16.131h230.864v26.814H242.338z"/>
            <path fill="#FFFFFE" d="M309.065 37.317h-19.669a1.427 1.427 0 1 1 0-2.855h19.669a1.427 1.427 0 1 1 0 2.855zM341.88 37.317h-23.898a1.427 1.427 0 1 1 0-2.855h23.832c.787 0 1.426.639 1.426 1.427 0 .764-.599 1.393-1.36 1.428zM374.71 37.317h-23.832a1.427 1.427 0 1 1 0-2.855h23.832a1.427 1.427 0 1 1 0 2.855zM407.541 37.317h-23.832a1.409 1.409 0 0 1-1.426-1.428 1.413 1.413 0 0 1 1.426-1.427h23.832a1.425 1.425 0 0 1 1.426 1.427 1.429 1.429 0 0 1-1.426 1.428zM432.062 37.317h-15.539a1.427 1.427 0 1 1 0-2.855h15.539a1.427 1.427 0 1 1 0 2.855z"/>
            <path fill="#BEBCBA" d="M295.674 81.28h37.699v37.744h-37.7z"/>
            <path fill="#F5F7F9" d="M299.1 84.71h30.864v30.901H299.1z"/>
            <path fill="#FCD991" d="M355.074 126.293h12.703v12.718h-12.703z"/>
            <path fill="#C29CD3" d="M286.643 183.91h16.98v17.001h-16.98z"/>
            <path fill="#F1F2F2" d="M305.77 183.91h16.982v17.001H305.77z"/>
            <path fill="#C325FE" d="M324.899 183.91h16.98v17.001H324.9zM286.643 202.306h16.98v17.001h-16.98z"/>
            <path fill="#590082" d="M305.77 202.306h16.982v17.001H305.77z"/>
            <path fill="#F9CF23" d="M324.899 202.306h16.98v17.001H324.9z"/>
            <path fill="#FFDB45" d="M286.643 220.702h16.98v17.001h-16.98z"/>
            <path fill="#F1F2F2" d="M305.77 220.702h16.982v17.001H305.77z"/>
            <path fill="#C29CD3" d="M324.899 220.702h16.98v17.001H324.9z"/>
            <path fill="#E6E7E8" d="M337.257 128.542h-49.484a1.132 1.132 0 0 1-1.13-1.133 1.117 1.117 0 0 1 1.13-1.116h49.484a1.098 1.098 0 0 1 1.115 1.116 1.117 1.117 0 0 1-1.115 1.133z"/>
            <path fill="#FFF" d="M383.545 129.641h-8.605a1.114 1.114 0 0 1-1.115-1.132 1.117 1.117 0 0 1 1.115-1.133h8.605a1.132 1.132 0 1 1 0 2.265z"/>
            <path fill="#6C6C6C" d="M398.608 135.516h-23.62a1.098 1.098 0 0 1-1.114-1.116 1.117 1.117 0 0 1 1.115-1.132h23.619c.625 0 1.13.507 1.13 1.132a1.117 1.117 0 0 1-1.13 1.116z"/>
            <path fill="#E6E7E8" d="M432.357 149.875h-76.382a1.132 1.132 0 1 1 0-2.265h76.382a1.133 1.133 0 1 1 0 2.265zM378.169 155.504h-22.194a1.132 1.132 0 1 1 0-2.265h22.194a1.132 1.132 0 1 1 0 2.265z"/>
            <path fill="#6C6C6C" d="M364.253 161.805h-8.196a1.132 1.132 0 0 1-1.13-1.132 1.132 1.132 0 0 1 1.13-1.116h8.196c.618 0 1.122.497 1.13 1.116a1.133 1.133 0 0 1-1.13 1.132z"/>
            <path fill="#F1F2F2" d="M349.452 200.139h84.036v22.072h-84.036z"/>
            <path fill="#FCD991" d="M355.074 205.998h12.703v12.718h-12.703z"/>
            <path fill="#4D5068" d="M383.545 209.378h-8.605a1.114 1.114 0 0 1-1.115-1.132c0-.616.5-1.116 1.115-1.116h8.605c.618 0 1.122.497 1.13 1.116 0 .626-.506 1.132-1.13 1.132zM398.608 215.237h-23.62a1.114 1.114 0 0 1-1.114-1.132 1.1 1.1 0 0 1 1.115-1.116h23.619a1.114 1.114 0 0 1 1.13 1.116c0 .625-.505 1.132-1.13 1.132z"/>
            <path fill="#E6E7E8" d="M432.357 229.58h-76.382a1.132 1.132 0 0 1-1.13-1.116c0-.626.506-1.133 1.13-1.133h76.382c.624 0 1.13.507 1.13 1.133a1.132 1.132 0 0 1-1.13 1.115zM378.169 235.208h-22.194a1.114 1.114 0 0 1-1.13-1.116c0-.625.506-1.132 1.13-1.132h22.194c.624 0 1.13.507 1.13 1.132a1.117 1.117 0 0 1-1.13 1.116z"/>
            <path fill="#6C6C6C" d="M364.253 241.526h-8.196a1.132 1.132 0 1 1 0-2.265h8.196a1.133 1.133 0 1 1 0 2.265z"/>
            <path fill="#E6E7E8" d="M337.257 136.648h-49.484a1.132 1.132 0 0 1-1.13-1.132 1.117 1.117 0 0 1 1.13-1.116h49.484a1.098 1.098 0 0 1 1.115 1.116 1.117 1.117 0 0 1-1.115 1.132zM337.257 252.587h-49.484a1.114 1.114 0 0 1-1.13-1.116c0-.626.506-1.133 1.13-1.133h49.484a1.114 1.114 0 0 1 1.115 1.133 1.1 1.1 0 0 1-1.115 1.116zM337.257 263.27h-49.484a1.132 1.132 0 0 1-1.13-1.133 1.117 1.117 0 0 1 1.13-1.115h49.484a1.098 1.098 0 0 1 1.115 1.115 1.117 1.117 0 0 1-1.115 1.133zM337.257 273.936h-49.484a1.114 1.114 0 0 1-1.13-1.115c0-.626.506-1.133 1.13-1.133h49.484a1.114 1.114 0 0 1 1.115 1.133 1.1 1.1 0 0 1-1.115 1.115zM319.26 284.62h-31.487a1.132 1.132 0 0 1-1.13-1.133 1.117 1.117 0 0 1 1.13-1.116h31.487a1.098 1.098 0 0 1 1.115 1.116 1.117 1.117 0 0 1-1.115 1.132zM319.26 144.755h-31.487a1.132 1.132 0 0 1-1.13-1.132 1.132 1.132 0 0 1 1.13-1.116h31.487c.616 0 1.115.5 1.115 1.116a1.117 1.117 0 0 1-1.115 1.132zM318.457 174.26h-29.88a1.938 1.938 0 1 1 0-3.873h29.88a1.917 1.917 0 0 1 1.918 1.937 1.922 1.922 0 0 1-1.918 1.937z"/>
            <path fill="#6C6C6C" d="M362.909 184.812a2.542 2.542 0 0 1-2.54 2.544 2.542 2.542 0 0 1-2.541-2.544 2.542 2.542 0 0 1 2.54-2.543 2.523 2.523 0 0 1 2.54 2.543z"/>
            <path fill="#C325FE" d="M321.375 106.404h-14.752a3.657 3.657 0 0 1 3.655-3.66h7.458a3.645 3.645 0 0 1 3.639 3.66z"/>
            <path fill="#640966" d="M317.736 102.745h-7.458c-.998-.001-1.952.408-2.639 1.132a3.588 3.588 0 0 0 2.639 1.149h7.458c1-.004 1.954-.42 2.639-1.15a3.686 3.686 0 0 0-2.64-1.131z"/>
            <path fill="#F5F7F9" d="M324.177 115.61h-20.226v-2.38c0-5.591 4.528-10.124 10.113-10.124 5.586 0 10.113 4.533 10.113 10.125v2.38z"/>
            <path fill="#C325FE" d="M316.572 103.385v12.176h7.605v-2.33a10.123 10.123 0 0 0-7.605-9.846zM311.556 103.385v12.176h-7.605v-2.33a10.123 10.123 0 0 1 7.605-9.846z"/>
            <path fill="#E8819C" d="M314.113 109.949a2.457 2.457 0 0 1-2.475-2.462v-5.218h4.918v5.218a2.46 2.46 0 0 1-2.443 2.462z"/>
            <path fill="#B74971" d="M313.999 102.187h-2.36v5.218a2.477 2.477 0 0 0 2.36 2.462v-7.68z"/>
            <path fill="#E8819C" d="M313.9 87.171a5.996 5.996 0 0 0-4.252 1.754 6.01 6.01 0 0 0-1.763 4.252v5.53a6.009 6.009 0 0 0 2.41 4.809 3.606 3.606 0 0 0 6.917.213 6.008 6.008 0 0 0 2.687-5.021v-5.53a6.003 6.003 0 0 0-5.999-6.007z"/>
            <path fill="#E8819C" d="M308.754 95.54a.87.87 0 1 1-1.739.002.87.87 0 0 1 1.739-.001zM320.768 95.54a.87.87 0 1 1-1.738.002.87.87 0 0 1 1.738-.001z"/>
            <path fill="#F9CF23" d="M315.26 91.454h-7.113a6.068 6.068 0 0 1 6.065-6.071h7.048a6.068 6.068 0 0 1-6 6.071z"/>
            <path fill="#FFEB99" d="M316.015 85.333v.427a5.642 5.642 0 0 1-5.639 5.645h3.278a5.635 5.635 0 0 0 3.998-1.647 5.649 5.649 0 0 0 1.657-3.998v-.427h-3.294z"/>
            <path fill="#FFF" d="M310.376 113.936a.295.295 0 0 1-.295-.295v-8.78a.295.295 0 0 1 .59 0v8.78a.295.295 0 0 1-.295.295zM317.654 113.936a.295.295 0 0 1-.295-.295v-8.78a.295.295 0 0 1 .59 0v8.78a.295.295 0 0 1-.295.295z"/>
            <path fill="#C325FE" d="M448.207 5.415h6.819v1.887h-6.82zM448.223 8.386h6.819v1.887h-6.82zM448.223 11.372h6.819v1.887h-6.82z"/>
            <path fill="#6C1296" d="M299.345 20.677H430.75v4.611H299.345z"/>
        </g>
        <g fill-rule="nonzero">
            <path fill="#191C3C" d="M271.415 297.698a3.153 3.153 0 0 0-.262-.672c0-.082-.082-.164-.131-.23a5.247 5.247 0 0 0-2.459-2.265 36.51 36.51 0 0 0-9.424-3.676l5.9-1.477v-.738l2.885.968a1.637 1.637 0 0 0 2.082-1.034c.032-.179.032-.362 0-.541a1.64 1.64 0 0 0 1.508-1.116c.146-.449.092-.94-.148-1.346a1.64 1.64 0 0 0 1.344-1.1 1.642 1.642 0 0 0-.377-1.64 1.64 1.64 0 0 0-.098-3.085l-1.328-.443 12.392-18.708a.41.41 0 0 0-.443-.607l-28.618 7.762-11.966-13.128v15.59l.754.508-.754.197v47.065h14.752c21.275-4.858 14.391-20.284 14.391-20.284zM170.464 302.556a31.963 31.963 0 0 0 5.393-10.06c1.049-4.332 0-11.667 0-16.114.098-11.635.147-23.566-3.82-34.462l2.066 9.206-.475 8.205-.426-.197-2.082-19.544a49.11 49.11 0 0 0-14.358-19.003c-.427 12.439-.853 39.91 4.72 48.36a13.641 13.641 0 0 0 4.917 4.136 124.481 124.481 0 0 0-12.194-4.775l-.656-.214h-.147l-.607-.18h-.098l-.508-.148h-.115l-.41-.131-.328-.099h-.557c-.321.003-.64.047-.95.132l-.378.131-.377.148a7.77 7.77 0 0 0-2.31 1.64 12.393 12.393 0 0 0-3.131 5.465v.246a13.554 13.554 0 0 0-.148 5.908 20.177 20.177 0 0 0 4.688 9.403l.344.394c.517.544 1.064 1.06 1.64 1.543 2.966 2.527 6.26 5.136 9.047 7.27l1.164.87 1.327 1 1.394 1.05.983.722.606.444.738.541-9.507 1.067a5.622 5.622 0 0 0-5.18 3.43 5.437 5.437 0 0 0-.458 2.198v.165c0 .325.032.65.098.968.134.785.43 1.534.869 2.199a5.603 5.603 0 0 0 4.475 2.248h3.278l.41-.115c.117-.028.233-.067.344-.115a4.8 4.8 0 0 0 .918-.41c.129-.067.21-.2.213-.345.02-.125.02-.252 0-.377 3.54-2.019 6.277-7.385 8.048-11.487 0-.132.098-.296.164-.427a1.983 1.983 0 0 0 1.376-.886zm2.262-26.864v.41l-2.622-1.329-.18-.082h-.148c.934.345 1.934.706 2.95 1.001z" opacity=".3"/>
            <path fill="#191C3C" d="M218.31 166.679c.786-2.626-1.148-5.235-3.115-7.138-3.868-3.726-8.72-6.81-14.096-7.106-4.917-.263-10.982 2.97-14.211 6.564a39.157 39.157 0 0 0-4.917 7.253 16.737 16.737 0 0 0-2.098 7.188c-.18 2.987 1.196 6.121 0 9.026-.36.886-.935 1.64-1.279 2.576a10.432 10.432 0 0 0 .36 6.384 9.2 9.2 0 0 1 .427 2.38 16.262 16.262 0 0 1-.983 3.856c-.82 3.003.245 6.777 3.13 7.975a7.76 7.76 0 0 0 3.278.46c.382.003.761-.07 1.115-.214 1.033-.541.983-2.035 1.639-3.052a4.44 4.44 0 0 1 3.917-1.641 10.216 10.216 0 0 0 4.426-.493c3.622-1.755 2.754-7.81 6.08-10.075 1.46-.985 3.443-1.018 4.803-2.134 1.36-1.116 1.82-3.544 2.688-5.382a23.302 23.302 0 0 1 3.05-4.267 29.012 29.012 0 0 0 5.621-11.98"/>
            <path fill="#E8819C" d="M209.77 228.414l-21.931-2.346-8.31-23.91 6.769-2.675 15.358.263 10.048 2.412z"/>
            <path fill="#0E0F30" d="M177.365 273.706h50.713v30.59h-50.713z"/>
            <path fill="#AE00FF" d="M203.557 200.205s9.36 2.068 12.54 3.282c0 0 10.162.952 13.341 14.622l7.835 35.38 16.506 18.052-6.36 4.923-21.226-14.36a6.105 6.105 0 0 1-2.442-3.478l-5.852-22.975.279 18.856s13.342 19.282 9.31 25.846l-50.812-2.757 1.492-26.486-5.72-25.633 3.442-21.99 10.424-3.922s-2.442 14.146 10.523 16c0-.082 11.49-3.216 6.72-15.36z"/>
            <path fill="#191C3C" d="M218.08 246.154l-.148-10.552c-2.573 4.201-4.032 13.128-6.917 17.1a6.763 6.763 0 0 0-1.114 2.05 5.19 5.19 0 0 0 1.557 4.76 26.228 26.228 0 0 0 4.18 3.134 24.605 24.605 0 0 1 7.277 8.123c1.36 2.363 4.081 6.893 2.737 9.551h1.836c4.032-6.564-9.31-25.846-9.31-25.846l-.098-8.32z" opacity=".3"/>
            <path fill="#191C3C" d="M231.307 262.105a6.022 6.022 0 0 1-2.442-3.48l-10.933-22.974 3.278 12.833 2.59 10.174a6.105 6.105 0 0 0 2.442 3.48l21.26 14.375 1.196-.92-17.391-13.488z" opacity=".3"/>
            <path fill="#242552" d="M169.317 304.295s-8.605-6.203-15.358-11.963a19.13 19.13 0 0 1-6.442-17.329v-.246s2.934-7.565 7.163-7.565c0 0 26.078 6.744 45.108 25.304L231.848 303l-59.384 7.63-3.147-6.334z"/>
            <path fill="#F7F9FA" d="M174.054 305.23a8.646 8.646 0 0 0-2.377-2.92c-.688-.427-1.491-.64-2.18-1.067-2.065-1.28-2.983-4.086-4.556-5.891-1.574-1.805-3.426-2.38-4.737-4.103a21.047 21.047 0 0 1-2.54-4.923 617.627 617.627 0 0 1-1.984-4.923 12.599 12.599 0 0 1-1.295-5.251c0-1.165 1.852-8.534 3.852-7.894-2.23-.722-3.524-1.05-3.524-1.05a5.931 5.931 0 0 0-4.016 2.084 13.139 13.139 0 0 0-3.278 11.717 20.042 20.042 0 0 0 6.556 11.34c6.753 5.76 15.358 11.963 15.358 11.963l3.18 6.334 5.966-.771c-1-2.002-2.933-2.232-4.18-4.201a2.24 2.24 0 0 1-.245-.443z" opacity=".07"/>
            <path fill="#191C3C" d="M181.594 307.446v2.019l50.287-6.466-15.113-4.94-10.03-2.855z" opacity=".3"/>
            <path fill="#242552" d="M253.779 290.544s12.49 2.707 13.539 7.154c0 0 6.884 15.426-14.391 20.35h-64.35v-10.602l30.634-8.205 34.568-8.697z"/>
            <path fill="#191C3C" d="M267.318 297.698c-.295-1.263-2.05-3.282-3.279-3.282 0 1.46.886 2.807.853 4.333a8.39 8.39 0 0 1-2.295 5.382 22.092 22.092 0 0 1-7.409 4.726l-4.917 2.249a24.274 24.274 0 0 1-4.54 1.756c-5.245 1.296-10.769-.329-16.047.623-3.278.59-6.556.853-9.834 1.132-2.59.214-31.274 2.035-31.274 1.494v1.903h64.35c21.276-4.89 14.392-20.316 14.392-20.316z" opacity=".3"/>
            <path fill="#E8819C" d="M188.576 307.446l-4.065-3.085a6.452 6.452 0 0 0-4.638-1.28l-20.112 2.248a5.642 5.642 0 0 0-5.638 5.629v.164a5.642 5.642 0 0 0 5.638 5.645h28.815v-9.32z"/>
            <path fill="#191C3C" d="M184.511 304.361a6.452 6.452 0 0 0-4.638-1.28l-20.112 2.248a5.642 5.642 0 0 0-5.638 5.629v.164c.006.627.117 1.248.328 1.838a5.623 5.623 0 0 1 5.31-3.807l20.112-2.281a6.55 6.55 0 0 1 4.638 1.28l4.065 3.101v-3.823l-4.065-3.069z"/>
            <path fill="#191C3C" d="M165.547 309.268v-.23a7.407 7.407 0 0 1 1.54-4.53l-7.342.821a5.642 5.642 0 0 0-5.639 5.629v.164a5.642 5.642 0 0 0 5.639 5.645h13.276a7.47 7.47 0 0 1-5.29-2.197 7.488 7.488 0 0 1-2.184-5.302z"/>
            <path fill="#F5F7F9" d="M190.69 290.068l40.863-10.486 14.358 12.93-26.7 6.68z"/>
            <path fill="#DFE2EC" d="M197.214 290.068l37.617-9.748 11.08 11.536-21.685 5.416z"/>
            <path fill="#D8D7D6" d="M219.965 297.863l-29.258-7.795v.574c0 .798.518 1.502 1.278 1.74l25.03 7.696a1.638 1.638 0 0 0 1.9-.673l1.05-1.542z"/>
            <path fill="#BEBCBA" d="M217.62 300.16l43.322-10.782v-1.772l-40.977 10.257z"/>
            <path fill="#E8819C" d="M206.737 273.707l10.277 2.396c.398.09.772.264 1.098.508l5.164 3.857a5.595 5.595 0 0 1 1.835 2.346l1.64 2.807.737 5.398a1.457 1.457 0 0 1-2.393-1.017l-.246-2.888a8.986 8.986 0 0 0-3.655-3.282l-2.868-.624 2.343 3.988a1.544 1.544 0 0 1-1.262 2.33l-5.753-6.974-10.08-4.054 3.163-4.791z"/>
            <path fill="#F5F7F9" d="M219.26 298.371l14.866-26.141a.426.426 0 0 1 .246-.197l44.452-12.045a.41.41 0 0 1 .443.607l-18.538 27.996a.54.54 0 0 1-.246.18l-40.764 10.191a.41.41 0 0 1-.46-.59z"/>
            <path fill="#DFE2EC" d="M252.55 280.336a5.165 5.165 0 0 1-3.885 3.282c-1.377 0-1.852-1.493-1.066-3.282a5.148 5.148 0 0 1 3.885-3.282c1.377-.032 1.852 1.46 1.066 3.282z"/>
            <path fill="#191C3C" d="M177.365 276.43c-3.946-2.1-8-3.99-12.146-5.66.115.213.23.426.36.623 6.705 10.174 39.749 9.665 39.749 9.665l2.065-4.545-2.737-2.84h-27.291v2.758z" opacity=".3"/>
            <path fill="#AE00FF" d="M181.233 201.387s-12.62 4.759-14.243 5.612a9.025 9.025 0 0 0-5.918 8.057c-.213 5.94-2.196 43.652 4.508 53.826 6.704 10.174 39.928 11.487 39.928 11.487l3.606-7.204-31.798-13.981-3.573-33.116 7.49-24.681z"/>
            <path fill="#191C3C" d="M177.316 259.134l-3.557-33.066-.443 1.854 1.46 32.492 33.272 14.852 1.066-2.15z" opacity=".3"/>
            <path fill="#E8819C" d="M267.17 282.88l-5.114-1.641a1.64 1.64 0 0 1-1.049-2.084 1.64 1.64 0 0 1 2.082-1.034l5.13 1.641a1.64 1.64 0 0 1 1.05 2.084 1.64 1.64 0 0 1-2.099 1.034z"/>
            <path fill="#E8819C" d="M266.596 285.538l-5.9-1.985a1.64 1.64 0 0 1-1.05-2.084 1.64 1.64 0 0 1 2.082-1.034l5.917 1.97a1.64 1.64 0 0 1 1.033 2.083 1.64 1.64 0 0 1-2.082 1.05z"/>
            <path fill="#E8819C" d="M265.4 287.967l-4.704-1.64a1.64 1.64 0 0 1-1.05-2.085 1.64 1.64 0 0 1 2.082-1.05l4.705 1.64a1.64 1.64 0 0 1 1.049 2.085 1.64 1.64 0 0 1-2.082 1.05z"/>
            <path fill="#E8819C" d="M263.892 289.608l-2.95-.984a1.64 1.64 0 0 1-1.033-2.085 1.64 1.64 0 0 1 2.082-1.05l2.95.985a1.64 1.64 0 0 1 1.033 2.1 1.64 1.64 0 0 1-2.082 1.034zM221.751 286.786l-.426-4.267 2.114-.213.656 6.383a2.13 2.13 0 0 1-2.344-1.903zM189.412 193.28h12.555v16.377h-12.555z"/>
            <path fill="#191C3C" d="M201.967 199.073l-12.555 3.183v-8.976h12.555z" opacity=".3"/>
            <path fill="#E8819C" d="M219.637 172.472l-1.459-8.041a38.89 38.89 0 0 1-10.375 2.461c-1.175.043-2.34.219-3.475.525a8.004 8.004 0 0 0-4.917 5.104c-.607 1.74.213 5.744-2.279 6.072a3.277 3.277 0 0 1-2.835-1.411 28.286 28.286 0 0 0-2.033-2.593 2.67 2.67 0 0 0-4.655 1.903 5.271 5.271 0 0 0 1.64 4.185c1.163 1.083 2.868 1.64 3.507 3.15.224.589.351 1.21.377 1.839.145 2.182.796 4.3 1.901 6.186a19.574 19.574 0 0 0 7.606 5.974c3.278 1.788 6.556 2.79 7.998-1.33 1.18-3.282 5.098-4.923 6.31-8.073.64-1.641 0-3.282 0-5.088.197-3.987 2.82-6.711 2.689-10.863z"/>
            <path fill="#191C3C" d="M216.916 183.335c.23-3.987 2.852-6.711 2.655-10.863l-1.459-8.041c-.59.23-1.196.426-1.803.623l1.344 7.418c.214 4.152-2.409 6.876-2.638 10.863-.115 1.822.573 3.364 0 5.088-1.213 3.282-5.13 4.742-6.327 8.073a3.838 3.838 0 0 1-2.557 2.774 3.57 3.57 0 0 0 4.474-2.774c1.18-3.282 5.098-4.923 6.31-8.073.575-1.724-.097-3.266 0-5.088z" opacity=".1"/>
            <path fill="#191C3C" d="M180.594 181.908a3.281 3.281 0 0 1 2.491 3.282 15.015 15.015 0 0 1-.836 4.381 5.454 5.454 0 0 0 .312 4.316c.672 1.034 1.901 1.641 2.376 2.79.935 2.215-1.524 4.414-1.72 6.81-.28 3.66 4.753 6.22 4.245 9.846a17.724 17.724 0 0 0-.705 3.003c.098 1.871 2.245 3.282 1.918 5.186-.082.492-.345 1.017-.115 1.477.214.318.533.55.901.656.967.378 2.311.64 2.803-.279s-1.016-2.527-.492-3.708l5.344 1.181c.355.158.76.158 1.114 0 .18-.164.301-.383.345-.623.491-2.134-1.492-3.939-2.607-5.842a1.527 1.527 0 0 1-.278-.87c0-.657.721-1.067 1.327-1.346a4.444 4.444 0 0 0 2.672-2.527 5.156 5.156 0 0 0-1.491-4.037 8.556 8.556 0 0 1-2.05-6.433c.329-1.542 1.394-2.937 1.345-4.513-.115-2.92-3.885-4.578-4.278-7.483-.099-.705 0-1.444 0-2.166a5.103 5.103 0 0 0-2.64-3.676 14.87 14.87 0 0 0-4.425-1.51 8.35 8.35 0 0 0-3.59-.278 2.837 2.837 0 0 0-2.327 2.428"/>
        </g>
        <g>
            <path fill="#191C3C" fill-rule="nonzero" d="M467.531 305.74l-12.834 4.053a6.56 6.56 0 0 0-4.048 3.758v.18a4.302 4.302 0 0 0 1.252 3.051c.806.81 1.9 1.265 3.042 1.265h18.26V301.95l-5.672 3.79zM451.649 129.641v.903a3.99 3.99 0 0 0 1 2.904l.508.575c.403.458.65 1.032.704 1.64.115.97.689 1.825 1.541 2.298l3.18 1.756c.338.18.715.276 1.098.279h4.688l3.426-1.001 5.458.788v-9.847l-6.458.443-.984-2.084a5.163 5.163 0 0 0-4.392-2.92l-9.835-.477-11.785-11.799a.917.917 0 0 0-1.295 0 .936.936 0 0 0 0 1.313l10.605 10.618a1.346 1.346 0 0 0-.606 1.116 1.378 1.378 0 0 0 1.245 1.362l2.033.18 1.426 1.444v.115l-1.557.394z" opacity=".3"/>
            <path fill="#191C3C" fill-rule="nonzero" d="M442.217 113.457l.565-.565a.56.56 0 0 1 .792 0l23.34 23.366a.56.56 0 0 1 0 .792l-.565.565a.56.56 0 0 1-.793 0l-23.339-23.367a.56.56 0 0 1 0-.791z"/>
            <path fill="#88346D" fill-rule="nonzero" d="M514.305 71.36l13.043-5.73 5.94 13.555-13.043 5.73z"/>
            <path fill="#191C3C" fill-rule="nonzero" d="M527.866 66.79l-9.49 13.768-4.082-9.239 13.047-5.727z" opacity=".3"/>
            <path fill="#88346D" fill-rule="nonzero" d="M527.997 67.118L511.819 80.41a7.486 7.486 0 0 1-9.834-3.068l-1.787-3.184-2.18.837a1.49 1.49 0 0 1-2.016-1.198l-.901-7.04a3.713 3.713 0 0 1 .377-2.1l1.41-2.708-2.754-6.253c-.263-.607 0-4.283.573-4.545l23.095-7.155 10.195 23.122zM498.051 309.71h-21.226l7.687-5.349 1.721-4.923h11.818zM561.647 297.584l-18.456 9.206 3.672-8.616-1.18-5.087 10.014-6.301z"/>
            <path fill="#7507A8" fill-rule="nonzero" d="M525.555 178.708s1.426 48.394 0 51.249c0 0 22.947 28.045 34.093 61.03l-11.835 6.564-42.206-61.768 8.196-57.01 11.752-.065z"/>
            <path fill="#191C3C" fill-rule="nonzero" d="M512.72 239.097s10.261-46.506 10.556-49.92c0-.951 1.082-2.002 2.46-3.2-.1-4.381-.181-7.27-.181-7.27h-11.687l-8.195 57.01 15.178 22.105c.032-2.823-7.819-16.591-8.13-18.725z" opacity=".3"/>
            <path fill="#7507A8" fill-rule="nonzero" d="M491.986 173.079l-2.41 65.23-4.769 63.87h14.244s12.817-46.245 10.26-63.082c0 0 10.261-46.506 10.54-49.92.278-3.413 12.817-8.205 11.26-17.263l-9.13-8.008-28.06 3.02-1.935 6.153z"/>
            <path fill="#F7F9FA" fill-rule="nonzero" d="M496.264 173.063l1.935-6.138 24.258-2.61-.475-.41-28.061 3.02-1.935 6.154-2.41 65.23-4.769 63.87h4.278c.377-5.071.672-10.093.656-15.147 0-4.037.737-8.025.606-12.111 0-2.658-.557-5.481-.295-8.09a64.406 64.406 0 0 1 2.377-9.124 51.698 51.698 0 0 0 1.885-9.846 74.556 74.556 0 0 0-.967-12.489c-.541-5.103-.623-10.273-.705-15.409a51.142 51.142 0 0 1 1.311-9.42c.607-3.74.148-7.844.312-11.618.262-5.514 1.245-10.93 1.639-16.41.23-2.84-.492-6.696.36-9.452z" opacity=".09"/>
            <path fill="#88346D" fill-rule="nonzero" d="M538.717 109.456l8.785 14.917a6.192 6.192 0 0 1-1.13 7.713l-14.556 13.44-7.409-9.42 14.31-26.65z"/>
            <path fill="#191C3C" fill-rule="nonzero" d="M531.062 171.914l-9.13-8.008-28.06 3.02-1.935 6.153-.082.837c15.604-3.282 31.946 5.268 38.273 3.725a8.986 8.986 0 0 0 .934-5.727zM538.717 109.456l-14.31 26.65 7.409 9.42 4.671-4.316c2.295-11.274 5.59-24.78 5.59-24.78.114-.278.196-.508.295-.77l-3.655-6.204z" opacity=".3"/>
            <path fill="#242552" fill-rule="nonzero" d="M531.816 74.782a12.98 12.98 0 0 0 2.852 3.987c1.64 1.428 10.54 10.273 9.966 17.116 0 0 1.426 4.004-5.114 20.546 0 0-8.556 35.085-7.704 39.384.852 4.3 4.573 20.53 4.573 20.53s-24.439-10.404-49.582-2.823c0 0 5.622-31.59 5.983-37.399 0 0 12.817-43.077 21.029-49.74l17.997-11.601z"/>
            <path fill="#C325FE" fill-rule="nonzero" d="M532.701 75.635l-1.13-5.137s-14.753 6.844-17.096 11.98l-1.426 8.845s11.653-13.686 19.652-15.688z"/>
            <path fill="#191C3C" fill-rule="nonzero" d="M563.352 295.844l4.212 8.074a2.924 2.924 0 0 1-1.639 4.103l-26.47 9.009h-11.999a6.007 6.007 0 0 1-1.72-2.79l13.702-6.416 6.18-8.567 5.801 4.07 8.196-2.773 3.737-4.71z"/>
            <path fill="#FFF" fill-rule="nonzero" d="M567.892 302.9l1.36 2.38a1.643 1.643 0 0 1-.803 2.412l-26.044 10.404h-12.818a3.85 3.85 0 0 1-2.724-1.13 3.859 3.859 0 0 1-1.128-2.726h18.03l24.127-11.34z"/>
            <path fill="#191C3C" fill-rule="nonzero" d="M499.92 303.18v9.353a3.165 3.165 0 0 1-3.147 3.168h-29.635l-12.392-2.15a6.56 6.56 0 0 1 4.049-3.758l12.834-4.054 9.621-6.301 3.64 7.696h10.67l4.36-3.955z"/>
            <path fill="#FFF" fill-rule="nonzero" d="M454.746 313.55h45.895v1.117a3.379 3.379 0 0 1-3.377 3.38h-38.223a4.297 4.297 0 0 1-4.295-4.3v-.196z"/>
            <path stroke="#FFF" d="M472.58 305.132l1.196 2.15M475.383 303.294l1.18 2.15M475.383 303.294l1.18 2.15M478.169 301.44l1.196 2.166M540.356 306.544l1.901 1.28M542.601 303.54l1.885 1.28M544.83 300.554l1.902 1.263"/>
            <path fill="#F9CF23" fill-rule="nonzero" d="M493.363 42.174a7.274 7.274 0 0 0 1.918-.968 9.17 9.17 0 0 0 1.147-1.362c.787-.735 1.637-1.4 2.54-1.986a6.373 6.373 0 0 1 3.41-1.739c1.525-.213 3.065 0 4.59-.23 2.655-.344 5.343-1.821 7.867-.935a9.036 9.036 0 0 1 4.098 3.971 62.87 62.87 0 0 1 5.884 10.174c1.393 3.283 1.098 7.237 1.443 10.782a6.572 6.572 0 0 1-.099 2.61c-.328.967-1.114 1.854-1.016 2.871-.115-1.165-1.934-3.167-2.459-4.3-.524-1.132-.967-2.379-2.458-2.838a4.733 4.733 0 0 1-2.098-.755 3.054 3.054 0 0 1-.623-1.215 6.32 6.32 0 0 0-1.082-2.117 2.523 2.523 0 0 0-2.065-.968c-.317.015-.616.15-.836.378-.098.115-.164.262-.279.377-.114.115-.803.328-1.196.525-1.754.886-.197 3.594-.18 4.923a3.43 3.43 0 0 1-2.23 3.561 15.371 15.371 0 0 0-1.311-3.38 16.71 16.71 0 0 0-5.278-4.923l-2.901-2.117a3.44 3.44 0 0 0-1.95-.82c-.931.125-1.74.702-2.164 1.542-1.54 2.461-4.622 5.284-7.589 2.74a5.255 5.255 0 0 1-1.64-4.086c0-2.297 1.083-3.282 2.214-4.923 1.13-1.64 2.032-3.741 4.343-4.792z"/>
            <path fill="#191C3C" fill-rule="nonzero" d="M513.294 146.823l13.392-23.746-12.326-5.186-5.966 10.568-13.506.92a362.613 362.613 0 0 0-2.098 6.76c-.099 1.379-.476 4.234-1.017 7.746l21.521 2.938z" opacity=".3"/>
            <path fill="#F7F9FA" fill-rule="nonzero" d="M544.634 95.885c.573-6.843-8.196-15.688-9.966-17.116a12.98 12.98 0 0 1-2.852-3.987l-1.77 1.132c.033 1.213.271 2.411.705 3.544a6.571 6.571 0 0 1 .196 4.71c-1.13 2.396-4.54 2.708-6.163 4.808-1.622 2.1-.786 5.35.23 7.927 1.885 4.759 3.95 10.026 2.147 14.769a16.11 16.11 0 0 0-1.278 3.512c-.509 3.56 3.147 6.564 3.147 10.158 0 3.593-3.656 6.219-4.77 9.698-1.328 4.086 1.065 8.402 1.164 12.685 0 3.463-1.36 6.843-1.164 10.306.238 2.254.79 4.463 1.639 6.564a107.879 107.879 0 0 1 2.72 9.222c1.542.427 2.87.82 3.984 1.198 0-.279.13-.558.18-.837.426-2.625.852-5.267 1.295-7.893-.95-4.2-1.901-8.533-2.295-10.453-.852-4.283 7.704-39.385 7.704-39.385 6.573-16.558 5.147-20.562 5.147-20.562z" opacity=".04"/>
            <path fill="#88346D" fill-rule="nonzero" d="M513.966 117.087l-5.507 10.749-37.617 2.576-.983-2.084a5.163 5.163 0 0 0-4.393-2.92l-11.555-.559a1.36 1.36 0 0 0-1.443 1.379 1.378 1.378 0 0 0 1.246 1.362l3.59.328-.132 1.411-1.426.296v.902a3.99 3.99 0 0 0 1 2.905l.508.574c.403.458.65 1.033.705 1.641.115.97.688 1.824 1.54 2.298l3.18 1.756a2.39 2.39 0 0 0 1.115.278h4.672l3.425-1 40.322 5.792 14.473-21.694-12.72-5.99z"/>
            <path fill="#191C3C" fill-rule="nonzero" d="M530.111 126.359l-17.308-10.273 9.26-22.45c2.497-5.547 9.01-8.022 14.556-5.53 5.54 2.495 6.31 9.01 3.819 14.573l-10.327 23.68z" opacity=".3"/>
            <path fill="#242552" fill-rule="nonzero" d="M528.407 123.848l-16.391-7.713 8.408-23.302c2.497-5.549 9.01-8.023 14.555-5.53 5.54 2.492 8.013 9.009 5.524 14.555l-12.096 21.99z"/>
        </g>
        <g stroke="#191C3C">
            <path d="M89.609 318.047h559.844"/>
        </g>
    </g>
</svg>
