<svg xmlns="http://www.w3.org/2000/svg" width="679" height="353" viewBox="0 0 679 353">
    <g fill="none" fill-rule="evenodd">
        <path fill="#E0E4F0" fill-rule="nonzero" d="M429.045 36.735c0 8.185-5.187 15.564-13.143 18.695-7.955 3.13-17.111 1.397-23.197-4.393-6.086-5.79-7.903-14.495-4.604-22.055 3.3-7.56 11.065-12.486 19.675-12.48 5.644 0 11.056 2.132 15.045 5.927 3.99 3.795 6.228 8.941 6.224 14.306z" opacity=".5"/>
        <path fill="#8184C4" fill-rule="nonzero" d="M506.169 215.825l-.457.21c-4.723 2.125-7.147 1.766-11.712-.225a48.027 48.027 0 0 1-11.729-6.944c-4.563-3.605-7.595-8.662-8.532-14.232a4.831 4.831 0 0 1 .63-3.621c1.25-1.312 3.248-1.705 4.943-.973a14.716 14.716 0 0 1 4.345 2.993c.54.528 1.204.927 1.936 1.167.748.233 1.567-.029 2.015-.643.614-1.018-.425-2.185-1.37-2.993-2.188-1.736-4.234-2.724-6.517-4.265-2.966-1.836-5.414-4.333-7.132-7.274a10.245 10.245 0 0 1-.283-9.652 5.91 5.91 0 0 1 2.094-2.26 7.745 7.745 0 0 1 5.51-.539c1.824.502 3.673.917 5.541 1.242 4.471.434 6.219-2.544 6.124-6.45 0-2.619-.944-5.163-1.102-7.782-.283-4.594 2.11-9.503 6.486-11.478 4.377-1.975 10.517-.075 12.09 4.28 1.701 4.744-2.187 10.072.379 14.591a14.073 14.073 0 0 0 4.234 4.385c2.44 1.497 5.967-.254 8.816-.12.64-.042 1.27.15 1.764.54.304.343.496.765.55 1.211.661 3.36-.526 6.807-3.148 9.144-2.944 2.544-8.06 3.846-9.32 7.842-.771 2.484-.44 8.68 3.716 8.051 1.574-.24 2.597-1.706 4.093-2.185 1.961-.46 3.988.487 4.801 2.245a6.573 6.573 0 0 1-.141 5.418 22.714 22.714 0 0 1-5.463 7.018c-4.455 4.43-7.336 8.576-13.161 11.3z"/>
        <path stroke="#191C3C" d="M499.982 158.134v96.406M511.758 174.835l-11.776 11.194-11.76-11.194M511.758 197.313l-11.776 11.18-11.76-11.18"/>
        <path fill="#F4D862" fill-rule="nonzero" d="M151.484 216.319l-.63.3c-6.533 2.992-10.012 2.469-16.372-.33a67.212 67.212 0 0 1-16.42-9.712c-6.155-5.163-10.925-12.152-11.917-19.904a6.794 6.794 0 0 1 .866-5.059c1.749-1.83 4.54-2.38 6.91-1.361a20.716 20.716 0 0 1 6.093 4.235 7.14 7.14 0 0 0 2.692 1.631c1.05.328 2.201-.037 2.834-.898.85-1.422-.598-2.993-1.92-4.1-3.055-2.425-5.92-3.817-9.132-5.987-4.14-2.563-7.556-6.052-9.949-10.161-2.375-4.174-2.527-9.171-.41-13.469a8.544 8.544 0 0 1 2.929-3.172 10.91 10.91 0 0 1 7.714-.749 81.265 81.265 0 0 0 7.745 1.736c6.297.614 8.69-3.561 8.564-8.979 0-3.666-1.322-7.213-1.574-10.88-.394-6.435 2.944-13.289 9.084-16.043 6.14-2.753 14.703-.12 16.892 5.987 2.377 6.63-3.054 14.067.535 20.412a19.862 19.862 0 0 0 5.903 6.121c3.432 2.02 8.36-.344 12.343-.18a3.812 3.812 0 0 1 2.471.764 3.14 3.14 0 0 1 .772 1.69c.897 4.707-.788 9.523-4.471 12.781-4.125 3.577-11.272 5.388-13.035 10.985-1.086 3.472-.614 12.122 5.195 11.239 2.188-.33 3.637-2.38 5.73-2.993 2.746-.633 5.572.698 6.707 3.157a9.216 9.216 0 0 1-.19 7.573c-1.573 3.801-4.722 6.854-7.65 9.817-6.077 6.016-10.123 11.808-18.309 15.549z"/>
        <path stroke="#191C3C" d="M142.888 135.7v148.217M159.34 159.062L142.888 174.7l-16.45-15.638M159.34 190.489l-16.452 15.639-16.45-15.64M678.867 351.157H639.51c.114-2.11-1.005-4.107-2.91-5.194a6.283 6.283 0 0 0-6.19 0c-1.906 1.087-3.025 3.084-2.912 5.194"/>
        <path stroke="#191C3C" d="M630.27 346.173c-.165-3.04-2.805-5.424-6.007-5.424-3.201 0-5.842 2.384-6.006 5.424M.086 351.157h39.357c0-3.158 2.692-5.717 6.013-5.717 3.322 0 6.014 2.56 6.014 5.717"/>
        <path stroke="#191C3C" d="M48.652 346.173c0-3.157 2.693-5.717 6.014-5.717s6.014 2.56 6.014 5.717"/>
        <path fill="#DF99FF" fill-rule="nonzero" d="M564.449 351.007h.078c1.134.569-.078 0-.078 0zm-14.28-6.764c-2.25 2.23-4.895 4.923-3.982 5.417 3.149 1.751 14.436 1.586 18.34 1.347 27.086 1.115 53.37-8.887 72.165-27.461-12.594-8.246-29.439-9.518-44.205-5.493-14.767 4.026-27.63 12.885-38.303 23.361-.708.733-3.306 2.11-4.014 2.859v-.03z"/>
        <path fill="#191C3C" fill-rule="nonzero" d="M550.17 344.273c.708-.704 3.306-2.126 4.014-2.829 10.674-10.476 23.615-19.335 38.303-23.36a61.478 61.478 0 0 1 22.04-1.931c-8.523.272-16.878 2.315-24.48 5.986-13.35 6.45-24.024 17.105-32.336 28.973-4.487 0-9.525-.404-11.461-1.497-.976-.419 1.669-3.098 3.92-5.342z" opacity=".2"/>
        <path fill="#DF99FF" fill-rule="nonzero" d="M552.295 301.95c5.1-4.324 11.744-6.584 18.325-8.365a182.09 182.09 0 0 1 30.824-5.567c-5.714 12.047-9.697 23.944-19.993 32.744-4.062 3.487-10.674 6.884-14.94 10.147-5.1 3.876-13.13 13.857-17.081 18.781-4.723.883-8.328-5.567-10.374-10.042-2.614-5.672.299-14.381 2.408-20.233 2.33-6.465 5.479-12.9 10.831-17.464z"/>
        <path fill="#F5F7F9" fill-rule="nonzero" d="M563.772 331.253c3.605-3.906 9.445-8.366 12.846-12.481 7.068-8.665 9.445-18.632 12.012-29.093 4.25-.708 8.522-1.262 12.814-1.661-5.714 12.047-9.697 23.944-19.993 32.744-4.062 3.487-10.674 6.884-14.94 10.147a68.531 68.531 0 0 0-8.611 8.575 59.022 59.022 0 0 1 5.872-8.231z" opacity=".08"/>
        <path fill="#DF99FF" fill-rule="nonzero" d="M550.768 269.73c2.299 11.045 4.613 22.448 2.598 33.493a90.762 90.762 0 0 1-3.826 13.214c-1.653 5.627-2.629 9.159-4.33 14.77 1.182-.792-1.211 2.71-2.55 4.7-1.338 1.99-3.431 4.759-5.069 2.559a25.606 25.606 0 0 1-4.722-8.306c-.93-3.576 0-9.652 0-13.334-.08-9.667-.126-19.574 3.369-28.658 2.864-7.353 7.912-13.758 14.53-18.438z"/>
        <path fill="#191C3C" fill-rule="nonzero" d="M629.167 325.566c-13.302-.45-26.275 0-39.168 3.427-12.023 3.312-23.292 8.722-33.233 15.953-.52.374-1.023-.479-.504-.853 10.027-7.241 21.389-12.637 33.501-15.908 13.02-3.487 25.991-3.712 39.357-2.993.189 0 .205.3 0 .3l.047.074zM597.115 291.714c-10.705 4.766-20.5 11.194-28.983 19.021-9.099 8.516-15.207 18.707-22.04 28.764a.297.297 0 0 1-.393.104.268.268 0 0 1-.11-.374c11.697-20.846 28.227-38.416 51.447-47.74.158 0 .3.165.142.225h-.063zM550.154 274.07c-6.958 19.74-15.097 38.61-10.374 59.862.094.433-.63.628-.724.18-4.393-20.16 1.983-41.8 10.94-60.087 0-.09.205 0 .158 0v.045z"/>
        <path fill="#191C3C" fill-rule="nonzero" d="M619.611 332.615a42.061 42.061 0 0 0-4.44-3.981 55.824 55.824 0 0 0-5.226-2.993.13.13 0 0 1-.043-.16.143.143 0 0 1 .153-.08c3.922 1.386 7.298 3.89 9.667 7.169 0 0 0 .134-.11.09v-.045zM608.906 337.538c-3.715-6.42-9.1-8.29-16.451-9.054a.395.395 0 0 1-.317-.226.362.362 0 0 1 .047-.374.406.406 0 0 1 .364-.148c6.959.868 13.901 2.843 16.483 9.742 0 .075-.094.12-.126 0v.06zM595.62 338.451c-4.235-3.173-8.628-7.962-14.578-6.495a.262.262 0 0 1-.286-.027.232.232 0 0 1-.073-.263.251.251 0 0 1 .233-.159c5.998-1.496 10.862 3.203 14.877 6.78.11.104 0 .254-.174.164zM582.553 345.02c-3.967-4.758-9.73-9.143-16.31-5.85-.378.179-.724-.36-.33-.554 6.549-3.308 13.334.853 16.797 6.285 0 .09-.078.195-.157.12zM612.984 317.515c-.866 4.025-4.55 6.494-7.872 8.635-.252.164-.488-.225-.236-.375 3.463-2.11 6.801-4.37 7.95-8.32 0-.15.268-.09.236 0l-.078.06z"/>
        <path fill="#191C3C" fill-rule="nonzero" d="M598.957 318.398c-1.618 3.878-4.168 7.342-7.447 10.116-.267.24-.66-.15-.393-.374a33.798 33.798 0 0 0 7.714-9.787h.126v.045zM587.087 322.857a17.921 17.921 0 0 1-3.039 5.178c-.976 1.152-2.471 3.382-3.92 3.936a.359.359 0 0 1-.362-.09l-.157-.15a.362.362 0 0 1 .079-.568l.173-.105a.344.344 0 0 1 .393 0l.126.135c.061.052.087.131.067.206a.215.215 0 0 1-.161.153c-.504 0 1.574-2.17 1.574-2.125a40.818 40.818 0 0 0 1.78-1.886 23.867 23.867 0 0 0 3.32-4.819c0-.09.205 0 .174.075l-.047.06zM577.169 327.631c-2.822 4.26-6.452 7.985-10.705 10.985-.473.359-1.165-.285-.677-.644a80.208 80.208 0 0 0 11.02-10.565c.141-.15.409 0 .299.224h.063zM590.944 305.019c-7.462-.464-13.76-.09-20.324 3.8-.425.255-.819-.388-.394-.658 5.762-3.562 14.043-5.672 20.765-3.502.189 0 .189.374 0 .36h-.047zM579.341 316.781a44.8 44.8 0 0 0-10.484.689 79.32 79.32 0 0 0-9.241 2.903c-.394.15-.583-.464-.174-.614 6.203-2.2 13.209-4.729 19.915-3.142a.09.09 0 0 1 .057.082.09.09 0 0 1-.057.082h-.016zM565.52 327.062c-2.491.126-4.972.386-7.431.779-2.607.491-4.932 1.876-6.534 3.89-.299.315-.803-.15-.503-.478 1.51-1.918 3.665-3.286 6.108-3.876a32.651 32.651 0 0 1 8.36-.584c.077 0 .14.06.14.135a.138.138 0 0 1-.14.134z"/>
        <path fill="#191C3C" fill-rule="nonzero" d="M575.736 296.862a23.401 23.401 0 0 1-2.629 7.483c-.661 1.497-1.322 4.056-3.227 4.325-.173 0-.346-.18-.189-.3 3.416-2.768 3.59-7.99 5.825-11.493a.127.127 0 0 1 .11-.061c.046 0 .088.023.11.061v-.015zM564.606 300.125a76.67 76.67 0 0 1-5.557 20.502c-.126.315-.677.18-.551-.134a142.534 142.534 0 0 0 5.825-20.398c0-.15.299-.12.283 0v.03zM552.689 314.79c0 5.987-1.575 11.973-2.535 17.854-.079.45-.803.27-.724-.18 1.07-5.895 2.062-11.777 2.928-17.718 0-.18.33-.135.33 0v.045zM552.39 285.25a68.058 68.058 0 0 0-10.894 15.578c-.236.48-.976.075-.74-.389 2.745-5.78 6.563-11.041 11.272-15.534.236-.224.582.105.362.344z"/>
        <path fill="#191C3C" fill-rule="nonzero" d="M538.048 286.282c2.11 4.49 2.503 10.251 2.786 15.145 0 .449-.692.449-.724 0a67.783 67.783 0 0 0-.976-8.366c-.393-2.245-1.118-4.49-1.4-6.72 0-.149.251-.209.314-.074v.015zM546.156 303.342a93.268 93.268 0 0 0-7.667 15.145c-.079.15-.284 0-.268-.104 1.092-5.65 3.75-10.918 7.698-15.265.11-.12.331 0 .237.165v.06zM537.875 318.772a63.216 63.216 0 0 0-4.644-10.072c-.173-.254.252-.494.425-.24a27.947 27.947 0 0 1 4.36 10.282c0 .09-.11.09-.141 0v.03z"/>
        <g fill-rule="nonzero" transform="translate(72.196 172.92)">
            <path fill="#FBE27B" d="M116.583.18h263.03c1.087 0 1.968.837 1.968 1.87v157.645H114.615V2.05c0-1.033.881-1.87 1.968-1.87z"/>
            <path fill="#FFF" d="M128.296 14.531h239.589v132.264h-239.59z"/>
            <path fill="#DFE2EC" d="M143.156 29.676h23.236v102.527h-23.236zM305.795 29.676h46.473v32.19h-46.473zM353.307 98.023h-5.195v-1.976h3.148v-1.496h2.079l-.032 3.472zm-9.367 0h-4.156v-1.976h4.156v1.976zm-8.312 0h-4.172v-1.976h4.172v1.976zm-8.328 0h-4.156v-1.976h4.156v1.976zm-8.328 0h-4.156v-1.976h4.156v1.976zm-8.312 0h-4.172v-1.976h4.22l-.048 1.976zm-3.826-4.28h-2.078v-3.951h2.078v3.95zm46.473-2.993h-2.078v-3.951h2.078v3.95zm-46.473-4.85h-2.078v-3.95h2.078v3.95zm46.473-2.992h-2.078v-3.951h2.078v3.95zm-46.473-4.849h-2.078v-3.95h2.078v3.95zm46.473-2.993h-2.078V71.1h2.078v3.966zm-46.473-4.849h-2.078v-3.966h2.078v3.966zm46.473-3.068h-2.078v-1.302h-.913v-1.975h2.991v3.277zm-7.163-1.107h-4.156v-1.975h4.156v1.975zm-8.312 0h-4.172v-1.975h4.172v1.975zm-8.328 0h-4.156v-1.975h4.156v1.975zm-8.328 0h-4.172v-1.975h4.156l.016 1.975zm-8.312 0h-4.172v-1.975h4.172v1.975zM305.795 100.013h46.473v32.19h-46.473zM191.014 90.99h-20.812V29.677h20.812z"/>
            <path fill="#E0E4F0" d="M397.135 166.833H99.045c8.496 8.033 19.992 12.542 31.974 12.541h234.142c11.983 0 23.478-4.508 31.974-12.54z"/>
            <path fill="#FDFDFE" d="M99.046 158.856h298.09v7.977H99.046z"/>
            <path fill="#E0E4F0" d="M266.627 165.023h-36.98c-1.257-.009-2.274-.975-2.282-2.17 0-1.199 1.022-2.17 2.282-2.17h36.98c1.257.008 2.274.975 2.283 2.17-.009 1.195-1.026 2.161-2.283 2.17z"/>
            <path fill="#DFE2EC" d="M222.547 70.561h-1.574l.142-1.96h1.464a23.65 23.65 0 0 0 2.503-.15l.236 1.976c-.92.09-1.845.135-2.77.134zm-5.903-.688a23.396 23.396 0 0 1-4.093-1.377l.866-1.796c1.206.526 2.46.947 3.746 1.258l-.52 1.915zm12.893-.314l-.614-1.9a21.707 21.707 0 0 0 3.668-1.497l.96 1.75a24.863 24.863 0 0 1-4.03 1.647h.016zm-20.749-3.113a21.509 21.509 0 0 1-3.321-2.664l1.48-1.392c.929.897 1.94 1.714 3.022 2.44l-1.18 1.616zm28.416-.688l-1.275-1.497a22.14 22.14 0 0 0 2.897-2.589l1.574 1.317a24.26 24.26 0 0 1-3.212 2.769h.016zm-34.492-5.163a22.064 22.064 0 0 1-2.11-3.607l1.905-.793a18.37 18.37 0 0 0 1.92 3.292l-1.715 1.108zm40.238-.988l-1.779-1.018a20.537 20.537 0 0 0 1.748-3.397l1.952.703a22.59 22.59 0 0 1-1.858 3.712h-.063zm-43.733-6.525a19.985 19.985 0 0 1-.614-4.086l2.078-.104a19.74 19.74 0 0 0 .55 3.726l-2.014.464zm46.819-1.167l-2.047-.345c.233-1.24.35-2.496.346-3.756.004-.72-.033-1.439-.11-2.155l2.078-.21c0 .779.126 1.497.126 2.365a22.357 22.357 0 0 1-.409 4.1h.016zm-45.214-6.795l-2.062-.254c.188-1.366.504-2.713.945-4.026l1.983.599a21.253 21.253 0 0 0-.881 3.681h.015zm42.632-3.217a19.745 19.745 0 0 0-1.464-3.502l1.857-.898a22.447 22.447 0 0 1 1.575 3.846l-1.968.554zm-40.223-3.996l-1.826-.928a21.685 21.685 0 0 1 2.393-3.442l1.574 1.227a22.732 22.732 0 0 0-2.14 3.203v-.06zm36.634-2.649a19.857 19.857 0 0 0-2.677-2.783l1.417-1.497a23.92 23.92 0 0 1 2.928 2.993l-1.668 1.287zm-31.706-3.142l-1.37-1.497a24.083 24.083 0 0 1 3.526-2.41l1.055 1.707a21.033 21.033 0 0 0-3.196 2.2h-.015zm25.88-1.916a22.501 22.501 0 0 0-3.541-1.706l.771-1.84a24.7 24.7 0 0 1 3.873 1.87L234.04 30.2zm-19.08-1.9l-.708-1.856c1.357-.48 2.76-.836 4.188-1.063l.346 1.946a22.333 22.333 0 0 0-3.81.972h-.016zm11.729-.869a23.145 23.145 0 0 0-3.936-.389v-1.975c1.453.019 2.902.159 4.33.419l-.394 1.945zM285.739 101.54h-113.16c-1.306 0-2.368-1.003-2.376-2.245 0-1.248 1.064-2.26 2.377-2.26h113.159c1.313 0 2.377 1.012 2.377 2.26-.008 1.242-1.07 2.245-2.377 2.245zM285.739 113.078h-113.16c-1.306 0-2.368-1.003-2.376-2.245 0-1.248 1.064-2.26 2.377-2.26h113.159c1.313 0 2.377 1.012 2.377 2.26-.008 1.242-1.07 2.245-2.377 2.245zM247.94 124.616h-75.36c-1.307 0-2.369-1.002-2.377-2.245.008-1.244 1.068-2.251 2.377-2.26h75.36c1.31.009 2.37 1.016 2.378 2.26-.009 1.243-1.07 2.245-2.377 2.245zM300.994 38.52h-48.315c-1.304 0-2.361-1.004-2.361-2.244a2.19 2.19 0 0 1 .686-1.597 2.424 2.424 0 0 1 1.675-.663h48.315a2.426 2.426 0 0 1 1.685.658 2.19 2.19 0 0 1 .692 1.602 2.19 2.19 0 0 1-.697 1.593 2.426 2.426 0 0 1-1.68.652zM300.994 50.059h-48.315c-1.304 0-2.361-1.005-2.361-2.245a2.19 2.19 0 0 1 .686-1.597 2.424 2.424 0 0 1 1.675-.663h48.315a2.426 2.426 0 0 1 1.685.658 2.19 2.19 0 0 1 .692 1.602 2.19 2.19 0 0 1-.697 1.593 2.426 2.426 0 0 1-1.68.652zM287.99 61.597h-35.31c-1.305 0-2.362-1.005-2.362-2.245a2.19 2.19 0 0 1 .686-1.597 2.424 2.424 0 0 1 1.675-.662h35.311a2.426 2.426 0 0 1 1.686.657 2.19 2.19 0 0 1 .691 1.602 2.19 2.19 0 0 1-.697 1.593 2.426 2.426 0 0 1-1.68.652z"/>
            <path fill="#FFF" d="M456.847 66.82l18.545 17.12v86.665c0 1.948-.814 3.817-2.264 5.195-1.45 1.378-3.415 2.153-5.465 2.153h-72.417c-2.05 0-4.016-.775-5.466-2.153-1.45-1.378-2.264-3.247-2.264-5.195V74.168c0-4.058 3.46-7.348 7.73-7.348h61.601z"/>
            <path fill="#231F20" d="M457.95 82.16l17.442 18.96V83.94z" opacity=".35"/>
            <path fill="#C325FE" d="M456.847 66.82l18.545 17.12h-14.766c-2.084-.008-3.77-1.611-3.779-3.591V66.82z"/>
            <path fill="#E6E7E8" d="M394.317 96.511h14.531v13.813h-14.531z"/>
            <rect width="55.084" height="3.457" x="415.082" y="96.511" fill="#E6E7E8" rx=".77"/>
            <rect width="22.087" height="3.457" x="415.082" y="105.101" fill="#E6E7E8" rx=".77"/>
            <rect width="55.084" height="3.457" x="415.082" y="123.688" fill="#E6E7E8" rx=".77"/>
            <rect width="22.087" height="3.457" x="415.082" y="132.278" fill="#E6E7E8" rx=".77"/>
            <rect width="55.084" height="3.457" x="415.082" y="150.865" fill="#E6E7E8" rx=".77"/>
            <rect width="22.087" height="3.457" x="415.082" y="159.455" fill="#E6E7E8" rx=".77"/>
            <path fill="#E6E7E8" d="M394.317 122.805h14.531v13.813h-14.531zM394.317 149.099h14.531v13.813h-14.531z"/>
            <g fill="#C325FE">
                <path d="M401.952 108.828l-7.478-7.109 2.582-2.454 4.896 4.654 12.925-12.286 2.582 2.454z"/>
            </g>
            <g fill="#C325FE">
                <path d="M401.952 134.359l-7.478-7.109 2.582-2.454 4.896 4.654 12.925-12.287 2.582 2.455z"/>
            </g>
            <g fill="#C325FE">
                <path d="M401.952 159.89l-7.478-7.109 2.582-2.454 4.896 4.654 12.925-12.287 2.582 2.455z"/>
            </g>
            <g>
                <path fill="#C325FE" d="M.023 33.746h15.16v133.775H.023z"/>
                <path fill="#9A9CBC" d="M.023 170.994h15.16v5.597c0 .456-.19.894-.53 1.217-.34.322-.8.504-1.28.504H1.833c-1 0-1.81-.77-1.81-1.721v-5.657.06z"/>
                <path fill="#191C3C" d="M.023 167.536h15.16v3.457H.023z"/>
                <path fill="#CF51FE" d="M.023 33.746h7.588v133.775H.023z"/>
                <path fill="#F9CF23" d="M6.982 17.06L.023 33.747h15.16L8.226 17.06a.66.66 0 0 0-.622-.414.66.66 0 0 0-.621.414z"/>
                <path fill="#212121" d="M7.438 16.028l-1.889 4.49h4.093l-1.873-4.49a.172.172 0 0 0-.166-.116.172.172 0 0 0-.165.116z"/>
            </g>
            <path fill="#191C3C" d="M130.28 96.81h-15.665v62.047h-15.57v7.976c8.336 7.876 19.562 12.367 31.313 12.526.641-.039 1.142-.541 1.149-1.152V97.963c-.009-.639-.556-1.152-1.228-1.152z" opacity=".3"/>
            <g>
                <path fill="#FFF" d="M25.763 96.81h101.305c.325 0 .638.124.868.343.23.218.36.515.36.825v80.244c0 .645-.55 1.167-1.228 1.167H29.352c-1.947 0-3.526-1.5-3.526-3.352V96.811h-.063z"/>
                <path fill="#C325FE" d="M35.208 167.94c-3.054-.104-9.304.51-9.304 6.78V93.593c0-3.755 3.198-6.8 7.148-6.81h2.156v81.158z"/>
            </g>
            <path fill="#FAD94F" d="M94.842 142.68h4.613c.93 0 1.684-.718 1.684-1.602v-5.582c0-.427-.18-.837-.499-1.138-.32-.3-.752-.467-1.201-.463h-3.605c-.593-.014-1.117-.37-1.323-.898-.125-.314-.251-.644-.409-.943a1.297 1.297 0 0 1 .268-1.497l2.55-2.424c.32-.3.499-.71.499-1.137 0-.427-.18-.837-.499-1.138l-4.156-3.95a1.78 1.78 0 0 0-2.393 0l-2.566 2.454a1.455 1.455 0 0 1-1.574.27l-1.102-.42c-.532-.197-.882-.684-.882-1.227v-3.472c0-.884-.754-1.601-1.684-1.601H76.69a1.731 1.731 0 0 0-1.202.463c-.319.301-.499.71-.499 1.138v3.427c0 .568-.38 1.072-.944 1.257-.347.12-.693.27-1.04.42-.529.23-1.154.13-1.573-.255l-2.55-2.41a1.73 1.73 0 0 0-1.197-.474c-.45 0-.88.171-1.197.474l-4.14 3.966a1.548 1.548 0 0 0-.497 1.13c0 .425.179.832.497 1.13l2.582 2.44c.42.39.539.987.299 1.496-.158.344-.315.718-.44 1.047-.208.506-.721.839-1.292.838h-3.652c-.93 0-1.685.717-1.685 1.602v5.582c0 .892.762 1.616 1.7 1.616h3.684c.596.005 1.124.364 1.323.898.126.314.267.629.41.943a1.31 1.31 0 0 1-.253 1.496l-2.55 2.425c-.32.3-.499.71-.499 1.137 0 .427.18.837.499 1.137l4.172 3.936c.313.303.741.473 1.188.473.447 0 .875-.17 1.189-.473l2.566-2.454a1.455 1.455 0 0 1 1.574-.284l1.102.434c.532.197.882.684.882 1.227v3.442c0 .427.18.837.499 1.137.32.301.752.468 1.201.464h5.872c.45 0 .88-.17 1.197-.474.316-.304.492-.715.488-1.142v-3.427c.005-.566.383-1.069.944-1.257.33-.12.661-.24.992-.39a1.473 1.473 0 0 1 1.574.255l2.55 2.424c.663.624 1.73.624 2.393 0l4.14-3.95c.32-.301.5-.71.5-1.138 0-.427-.18-.836-.5-1.137l-2.565-2.424a1.27 1.27 0 0 1-.3-1.497c.315-.913.693-1.84.71-1.9zm-23.425-5.822c.636-3.283 3.369-5.834 6.833-6.378 3.464-.543 6.915 1.037 8.628 3.95 1.712 2.915 1.318 6.537-.986 9.056-2.304 2.518-6.022 3.393-9.296 2.186-3.703-1.402-5.865-5.081-5.18-8.814z"/>
        </g>
        <g fill-rule="nonzero">
            <path fill="#191C3C" d="M276.686 173.1l2.976 5.985c.346.689.645 1.317.913 1.856l.33.644.315.658.205.419c.235.475.503.935.803 1.377 1.68 2.546 4.722 3.98 7.871 3.711a4.53 4.53 0 0 0 2.96-1.272 122.223 122.223 0 0 0 10.705-13.469l-27.078.09zM263.258 350.767a7.08 7.08 0 0 0 .803-2.065c.16-.723.202-1.465.126-2.2l-.394-8.29c-.092.24-.197.474-.315.703l-1.102-11.778c6.423-28.284 7.872-46.302 8.076-53.875 0-1.496.079-2.574.079-3.232h3.51c1.417-10.82 8.25-31.113 8.25-31.113 4.061-16.747 2.377-25.92.346-30.604v-.075c2.251-.599 3.558-1.003 3.558-1.003s-2.613-6.225-5.337-12.63v-.165l-.472-1.108-.11-.284c-.158-.344-.3-.688-.441-1.018l-.142-.314c-.173-.434-.362-.853-.535-1.272l-.079-.165-.44-1.047-.158-.36-.378-.852-.157-.375c-.11-.269-.236-.523-.347-.793l-.141-.314c-.11-.284-.236-.539-.347-.808l-.126-.27-.409-.942-.094-.21-.3-.673-.11-.255-.236-.523a1.62 1.62 0 0 1-.11-.24c0-.15-.126-.27-.189-.404l-.11-.224c0-.12-.11-.225-.158-.33v-.15l-.188-.343a5.165 5.165 0 0 1-.41-1.273c-.161-.9-.256-1.81-.283-2.723v-2.08c0-.689 0-1.377.079-2.036h-39.924l1.653 9.563v.479c0 .18 0 .374-.095.614 0 .24-.078.508-.141.793v.224c0 .315-.11.659-.19 1.018-.062.36-.14.748-.235 1.167v.255c-.095.449-.19.898-.284 1.376-.11.51-.22 1.033-.346 1.572v.09c-.11.553-.236 1.107-.362 1.676-.205.987-.425 1.99-.646 2.993-.299 1.496-.63 2.858-.928 4.235l-.551-19.29.22-6.9h-13.46l2.424 46.812h1.575v.898a16.527 16.527 0 0 0-2.236 1.631l-.866.853a3.395 3.395 0 0 0-.976 2.799c.17.898.208 1.815.11 2.724a9.106 9.106 0 0 0-.63 3.83c.107.656.689 1.147 1.386 1.168.803 0 1.417-.928 2.204-.823.787.105.945.643 1.574.748.63.105 1.417-.584 2.189-.524.771.06 1.133.644 1.747.898.158.056.322.096.488.12v2.245c1.354 7.886 0 33.597 0 33.597h2.33c-.178.658-.43 1.736-.756 3.232-1.574 7.483-4.722 25.606-5.557 56.869l-1.779 9.099-1.07 5.477v3.98c0 1.703 1.452 3.083 3.243 3.083h1.338c4.014 0 7.367 1.138 7.73-2.663l.944-11.15-.504-3.546-1.37-9.668c.268-.973 4.881-20.502 11.666-45.105l2.897-9.548h6.045l.583 3.232.96 5.508c-1.04 6.09.85 43.998.85 43.998l-3.48 12.406 1.339 14.501c.063.735.417 1.42.992 1.916a3.241 3.241 0 0 0 2.094.778h3.856c1.124 0 2.162-.571 2.724-1.497l.016-.03z" opacity=".3"/>
            <path fill="#F9CF23" d="M276.277 135.73c-.315-.523-.834-.897-1.15-1.406-1.385-2.29 1.874-5.118.945-7.602-.63-1.706-2.96-2.395-3.652-4.07-.834-2.006.992-4.58-.378-6.286-.362-.45-.897-.749-1.275-1.183-.992-1.167-.567-2.858-.677-4.34-.205-2.993-2.723-5.492-3.148-8.485a5.643 5.643 0 0 0-.378-1.78 3.342 3.342 0 0 0-1.118-1.108 12.929 12.929 0 0 0-4.975-2.08 3.231 3.231 0 0 1-1.936-.794c-.41-.478-.472-1.212-1.008-1.57a2.195 2.195 0 0 0-1.086-.27l-5.132-.36h-.771a6.778 6.778 0 0 0-4.723 1.273 20.31 20.31 0 0 0-5.857 4.49c-1.448 1.825-1.936 4.22-3.4 5.985-1.464 1.766-3.149 2.305-2.912 4.774a7.98 7.98 0 0 1 .188 2.11 16.55 16.55 0 0 0-.488 1.662c0 .763.426 1.496.457 2.244 0 1.108-.819 2.02-1.385 2.993a6.003 6.003 0 0 0-.709 4.19c.235.8.409 1.616.52 2.44a6.119 6.119 0 0 1-.473 2.17 48.376 48.376 0 0 1-3.416 5.911c-1.086 1.96.96 3.652 1.464 5.508.504 1.855-.425 3.516-.33 5.297a9.68 9.68 0 0 0 1.26 3.772c.112.365.38.669.74.838.755.269 1.337-.614 1.904-1.138 1.417-1.302 3.731-.718 5.636-1.182 1.574-.39 2.944-1.497 4.565-1.497 1.622 0 3.023 1.153 4.613 1.392 2.519.39 4.723-1.496 7.068-2.424 5.369-2.185 12.138.374 17.097-2.544a11.1 11.1 0 0 0 2.77-2.365c1.071-1.362 2-3.157 1.15-4.564z"/>
            <path fill="#E8819C" d="M245.201 123.34h12.91v16.431H245.2z"/>
            <path fill="#E8819C" d="M261.321 139.771h-17.836v-8.62l17.836 1.527zM326.134 151.055a4.775 4.775 0 0 0-2.676-.104c-4.345.673-10.469 2.2-14.798 1.496a4.235 4.235 0 0 1-1.574-.524 5.177 5.177 0 0 1-1.748-2.44 4.903 4.903 0 0 0-1.779-2.408c-3.841-2.32-2.094 3.71-1.842 4.953.536 2.784-.96 3.996-1.574 6.345-.605.415-.89 1.134-.724 1.826.29.825.84 1.546 1.574 2.065 4.14 3.622 6.014-1.496 8.454-3.89 3.668-3.503 10.516-4.79 15.507-4.625a2.498 2.498 0 0 0 2.062-.524c.237-.391.275-.863.104-1.285a1.544 1.544 0 0 0-.986-.885z"/>
            <path fill="#3C4A8D" d="M264.124 184.054H233.96v-53.277l9.446 1.9 2.975 3.188c1.814 1.947 4.497 2.953 7.22 2.707 2.723-.245 5.16-1.713 6.555-3.949l1.213-1.945 7.871 24.738-5.116 26.638z"/>
            <path fill="#6371C5" d="M226.561 269.251s-5.415 18.258-6.533 60.864l-2.85 14.577v3.98c0 1.703 1.453 3.083 3.244 3.083h1.338c4.018 0 7.37-2.915 7.73-6.72l.944-7.093-1.81-13.244c-.284 1.392 4.486-18.991 11.665-45.076l3.149-10.296-16.877-.075z"/>
            <path fill="#E8819C" d="M226.561 269.251s-5.415 18.258-6.533 60.864l-2.85 14.577v3.98c0 1.703 1.453 3.083 3.244 3.083h1.338c4.018 0 7.37-2.915 7.73-6.72l.944-7.093-1.81-13.244c-.284 1.392 4.486-18.991 11.665-45.076l3.149-10.296-16.877-.075z"/>
            <path fill="#191C3C" d="M229.49 337.733c-.363 3.8-3.716 5.088-7.73 5.088h-1.338c-1.26 0-1.575-2.619-2.173-3.607l-1.07 5.478v3.98c0 1.703 1.452 3.083 3.243 3.083h1.338c4.014 0 7.367 1.138 7.73-2.664l.944-11.149-.504-3.547-.44 3.338z"/>
            <path fill="#E8819C" d="M266.58 269.251s.582 19.455-8.14 57.886l1.81 19.38a7.175 7.175 0 0 1-.928 4.265c-.562.926-1.6 1.496-2.723 1.497h-3.857c-1.623.008-2.987-1.159-3.149-2.694l-1.338-14.501 3.243-12.287s-1.89-37.907-.85-43.998l-1.559-9.473 17.49-.075z"/>
            <path fill="#191C3C" d="M259.857 338.212a7.362 7.362 0 0 1-.535 1.197c-.551.943-1.574 2.334-2.723 2.334h-3.857c-1.575 0-2.944-1.975-3.149-3.501l-.834-5.029-.504 1.886 1.338 14.501c.162 1.535 1.526 2.702 3.149 2.694h3.857c1.123-.001 2.161-.571 2.723-1.497a7.175 7.175 0 0 0 .929-4.265l-.394-8.32z"/>
            <path fill="#191C3C" d="M225.585 273.307h16.562l1.212-3.98H226.56s-.378 1.256-.976 3.98zM249.09 269.326l.708 3.981h16.766c.11-2.679 0-4.056 0-4.056l-17.475.075z" opacity=".3"/>
            <path fill="#B93B85" d="M275.852 204.077s9.446 6.765 2.566 34.885c0 0-6.832 20.293-8.25 31.112h-46.157s1.354-25.71 0-33.597c0 0-.567-32.669 11.382-35.108l40.459 2.708z"/>
            <path fill="#191C3C" d="M275.852 204.077l-40.459-2.723c-3.385.688-5.762 3.786-7.43 7.871 4.014 2.41 8.973 5.987 14.278 6.271 3.761.193 7.351-1.514 9.446-4.49l2.739-3.936.41.794c2.068 4.167 6.84 6.475 11.602 5.612 5.1-.943 9.445-3.906 12.295-5.089a10.515 10.515 0 0 0-2.881-4.31z" opacity=".3"/>
            <path fill="#B93B85" d="M261.321 132.678s13.618 1.915 15.318 6.914l-5.966 29.317s-1.087 9.712.299 12.301c1.385 2.59 11.256 26.13 11.256 26.13a157.307 157.307 0 0 1-15.822 3.741c-4.76.853-9.525-1.452-11.602-5.612l-.41-.808-2.739 3.936c-2.094 2.976-5.684 4.682-9.445 4.49a35.51 35.51 0 0 1-15.743-3.817s5.699-24.752 5.699-26.593l-4.172-24.723 5.856-26.608c0-.284-.189-.569.11-.509l9.446.374 12.232 46.153 8.25-16.462-2.567-28.224z"/>
            <path fill="#B93B85" d="M261.321 132.678s13.618 1.915 15.318 6.914l8.816 32.564 14.169-15.414 8.627 4.056s-12.957 19.59-19.207 25.74a4.53 4.53 0 0 1-2.96 1.272c-3.764.287-7.281-1.805-8.658-5.148l-6.816-13.753-9.289-36.231z"/>
            <path fill="#191C3C" d="M230.576 219.656c.528-.347.877-.89.96-1.496.583-2.455-1.196-5.537-1.433-7.992a76.475 76.475 0 0 1-.141-8.71c0-2.005-.614-4.49-.19-6.494-1.573 7.617-3.148 24.887-3.148 24.887 1.48.06 2.976.374 3.952-.195zM230.86 144.875l-2.866 13.08c.015.98.18 1.952.488 2.888l1.07 6.195.52 2.993c0 .36.094 2.05.425 2.275.787.539.268-3.547.22-3.95a16.128 16.128 0 0 1 0-5 8.246 8.246 0 0 0 .362-2.11 9.732 9.732 0 0 0-.503-1.99c-.756-2.649-.11-5.986 0-8.74l.283-5.641z" opacity=".3"/>
            <path fill="#7F1B59" d="M261.321 132.678l6.786 19.664-3.102 2.784 2.818 5.118-12.232 17.06 8.25-16.506zM243.359 131.151l-5.132 14.502 5.132 1.631-2.566 3.098 14.798 26.922z"/>
            <path fill="#3A3C4E" d="M255.497 185.206c-.142 6.36.614 13.469-1.575 19.56-.126.359.473.524.598.164 2.094-5.986 1.417-13.468 1.04-19.724h-.063z"/>
            <path fill="#191C3C" d="M225.223 234.113a2.238 2.238 0 0 0 1.874-.195 3.745 3.745 0 0 0 1.322-1.362 7.485 7.485 0 0 0 .897-4.384c0-1.377-.535-2.799-.535-4.19v-8.142h-2.85a98.354 98.354 0 0 0-1.952 17.54c.457.209.82.553 1.244.733z" opacity=".3"/>
            <path fill="#E8819C" d="M219.509 220.63a12.178 12.178 0 0 0-2.661 1.81l-.866.853a3.395 3.395 0 0 0-.976 2.798c.17.899.207 1.816.11 2.724a9.106 9.106 0 0 0-.63 3.831c.106.656.689 1.146 1.386 1.168.803 0 1.417-.928 2.204-.824.787.105.945.644 1.574.749.63.104 1.417-.584 2.188-.524.772.06 1.134.643 1.748.898a2.238 2.238 0 0 0 1.873-.195 3.711 3.711 0 0 0 1.307-1.362 7.629 7.629 0 0 0 .913-4.384c0-1.497-.63-2.993-.55-4.49-.031-1.122-.863-2.08-2.016-2.32-.897-.21-.346-.194-1.275-.284l-4.33-.449z"/>
            <path fill="#E8819C" d="M219.083 215.84h8.03v8.126h-8.03z"/>
            <path fill="#B93B85" d="M233.96 130.777l-7.997 4.37c-3.115 1.699-5.55 4.33-6.927 7.483l-2.928 6.674c-1.7 5.253-1.574 14.277-1.48 16.013l2.834 54.579h11.949l-1.134-39.913.709-22.313 4.974-26.938"/>
            <path fill="#191C3C" d="M270.972 181.21c-1.386-2.589-.3-12.301-.3-12.301s.473-2.365.441-2.395v.36a7.3 7.3 0 0 0-2.078 2.574c-1.29 2.708.488 7.722-1.81 9.577a9.417 9.417 0 0 1-2.676 1.332c-.498.141-.945.41-1.291.779a.924.924 0 0 0 .094 1.317c.27.123.567.18.866.164 2.83.166 5.273 1.94 6.187 4.49a49.964 49.964 0 0 0 3.432 7.048c.252.51.393 1.078.693 1.497.865 1.407 2.865 1.87 4.093 2.993-3.007-7.004-6.817-15.908-7.651-17.435z" opacity=".2"/>
            <path fill="#191C3C" d="M270.673 168.924l6.816 13.738c.45.932 1.044 1.795 1.763 2.56a28.087 28.087 0 0 0-2.156-6.077c-.725-1.78-.976-3.801-1.827-5.492-1.18-2.305-1.574-4.49-3.321-6.465-.126-.135-.268-.27-.441-.255-.173.015-.33.21-.425.375-.268.523-.709 1.017-.41 1.616z" opacity=".2"/>
            <path fill="#191C3C" d="M258.11 123.34H245.2v3.456l2.33 1.946c.771.632 1.754.982 2.771.988h1.937a4.377 4.377 0 0 0 2.85-1.048l2.975-2.604.047-2.738z" opacity=".3"/>
            <path fill="#E8819C" d="M241.895 108.569v11.583c0 1.456.66 2.84 1.81 3.801l3.826 3.188c.765.642 1.75.998 2.77 1.002h1.937a4.31 4.31 0 0 0 2.85-1.062l4.99-4.34c1.108-.942 1.748-2.284 1.763-3.697V108.57s1.07-5.687-3.51-8.126a19.223 19.223 0 0 0-12.28 0s-4.156 1.092-4.156 8.126z"/>
            <path fill="#F9CF23" d="M238.793 128.188c-.22-.419-.818-.12-.74.285.158.763-3.4 1.317-3.967 2.005-1.243 1.496.473 4.056-.944 5.373a3.398 3.398 0 0 0-1.102-.659c-.724-.284-1.417.42-1.433 1.048-.016.628 0 1.032 0 1.496-.016.385.174.75.504.973-.44.643-.913 1.272-.976 1.347-.43.5-.795 1.047-1.086 1.631a6.847 6.847 0 0 0-.724 3.801c.11 1.212 2.172 1.706 2.408.314a11.035 11.035 0 0 1 2.062-5.073 5.526 5.526 0 0 0 1.386-2.499c1.4-.928 1.763-2.47 2-4.37l.708-2.679a6.71 6.71 0 0 0 1.054-.359c.236-.284.74-.344.96-.688.536-.853.331-1.108-.11-1.946zM274.64 142.106c-1.307-1.99-.74-3.532-1.086-5.642a4.917 4.917 0 0 0-.835-1.72 7.19 7.19 0 0 1-.992-3.802c-.077-1.407-1.21-2.555-2.683-2.718-1.471-.163-2.852.707-3.267 2.06a.797.797 0 0 0 .607.82.85.85 0 0 0 .967-.402c1.165-1.122 2.046-.972 2.613.405a24.425 24.425 0 0 1-.55 1.496 3.708 3.708 0 0 0-.158 1.751c.148.454.36.887.63 1.287.545.947.801 2.02.74 3.098-.127 2.768 1.275 7.078 4.722 7.228.397-.008.716-.311.724-.688.142-1.557-.55-1.826-1.432-3.173z"/>
            <path fill="#F9CF23" d="M273.538 146.745c-3.889-1.99-1.795-5.178-3.464-7.842a4.111 4.111 0 0 0 .237-2.02 4.061 4.061 0 0 0-1.165-2.364c-.677-.659-1.842-.689-2.425-1.213-1.244-1.137 0-2.364-1.18-3.666a2.087 2.087 0 0 0-1.378-.759 2.14 2.14 0 0 0-1.535.4c-1.165.718-.457 2.768 1.008 2.26a2.29 2.29 0 0 0-1.253 1.445 2.167 2.167 0 0 0 .324 1.847c.308.392.7.719 1.149.958 1.968.942 1.574-.524 3.149 1.391a2.387 2.387 0 0 0-.551.105c-1.055.324-1.652 1.383-1.351 2.397.3 1.015 1.39 1.621 2.468 1.374-.11 1.82.224 3.638.976 5.313.725 1.49 2.081 2.616 3.731 3.098.766.23 1.59-.127 1.914-.825.323-.7.041-1.517-.654-1.899zM240.982 124.731a.374.374 0 0 0 .068-.405.409.409 0 0 0-.352-.238c-6.91.18-.803 5.402-2.393 8.68-1.007 2.08-2.44 2.768-2.912 5.178a6.992 6.992 0 0 1-1.118 4.34 40.534 40.534 0 0 0-1.983 1.646 3.404 3.404 0 0 0-.536 1.766c-.126 1.421 2.031 1.825 2.724.703.96-1.571 2.975-2.155 3.778-4.04.236-.622.41-1.264.52-1.916.52-2.38.488-3.577 2.015-5.597 1.151-1.194 1.772-2.766 1.731-4.385-.173-2.035-2.99-4.145-1.542-5.732zM245.437 99.754a.382.382 0 0 0 .185-.386.396.396 0 0 0-.295-.317c-6.722-1.497-2.204 5.043-4.613 7.827-1.574 1.78-3.148 2.095-4.203 4.31a7.16 7.16 0 0 1-2.236 3.92c-.797.34-1.584.714-2.361 1.123a3.647 3.647 0 0 0-.992 1.497c-.504 1.346 1.48 2.26 2.456 1.346 1.338-1.287 3.432-1.376 4.723-2.993a10.83 10.83 0 0 0 1.023-1.736c1.134-2.17 1.417-3.337 3.432-4.923 1.434-.88 2.455-2.253 2.85-3.831.377-1.93-1.795-4.655.03-5.837zM256.803 98.213a.401.401 0 0 0-.22-.363.444.444 0 0 0-.441.019c-5.258 4.25 2.944 4.684 3.873 8.186.582 2.23-.095 3.606 1.133 5.776a7.211 7.211 0 0 1 1.984 4.04 26.557 26.557 0 0 0-.457 2.485c.078.618.334 1.203.74 1.691.835 1.182 2.787.21 2.582-1.077-.268-1.796.897-3.442.3-5.388-.231-.632-.521-1.243-.867-1.826-1.149-2.155-1.983-2.993-2.125-5.552a6.032 6.032 0 0 0-1.574-4.49c-1.433-1.451-5.007-1.406-4.928-3.501z"/>
            <path fill="#F9CF23" d="M256.205 95.594a5.848 5.848 0 0 0-3.747.703c-1.165.973-.96 2.604-2.755 2.993-3.243.793-5.226-3.547-8.627-1.75-2.235 1.182-.236 4.489 2 3.262 0 0 2.865 1.66 3.479 1.87 2.644 1.037 5.691.322 7.525-1.766.362-.389.566-.882.881-1.287.315-.404.347-.508.347-.538 0-.03 0 .254.897.24.966-.144 1.678-.935 1.678-1.864 0-.93-.712-1.72-1.678-1.863z"/>
            <path fill="#FFF" d="M246.256 120.81h10.705s-5.101 5.927-10.705 0z"/>
            <path fill="#191C3C" d="M235.173 182.467c-.394-.658-.158-1.496-.205-2.26a5.564 5.564 0 0 0-1.29-2.843c-.914-1.257-1.922-2.454-2.96-3.621l1.574 8.979c0 .688-.819 4.684-1.842 9.368a7.85 7.85 0 0 0 1.228-1.496c.85-1.302 1.684-2.62 2.534-3.936a3.938 3.938 0 0 1 1.575-1.572c1.243-.583 2.833.165 4.077-.404l-.236-.464c-1.338-1.077-3.668-.404-4.455-1.75z" opacity=".2"/>
            <path fill="#191C3C" d="M256.724 181.21c0 .595-.507 1.078-1.133 1.078s-1.133-.483-1.133-1.078c0-.595.507-1.077 1.133-1.077s1.133.482 1.133 1.077z"/>
        </g>
        <g fill-rule="nonzero" transform="translate(322.727 72.652)">
            <path fill="#191C3C" d="M125.477 274.733l-12.39-1.347-2.361-2.424h-.283L88.655 151.898v-4.968h-.52l1.008-7.738c3.589.57 7.068-10.4 1.322-10.101l3.747-28.644h-57.65l7.478 46.483h-.52v4.968l-12.453 63.977-10.72 55.087h-.85l-2.346 2.424-12.405 1.347c-2.85.943-3.354 1.497-4.22 4.22l-.22.689h25.598l1.826-2.17v2.17h8.39v-8.68h-.424l13.649-48.098 17.128-48.638 15.743 49.745 12.358 46.991h-.425v8.68h8.39v-2.17l1.827 2.17h10.311a47.5 47.5 0 0 0 14.484-2.275c-.693-1.421-1.496-1.915-3.684-2.634z" opacity=".3"/>
            <path fill="#E8819C" d="M62.805 69.245h13.759v22.702H62.805z"/>
            <path fill="#191C3C" d="M76.564 70.86l-13.76 4.865v-6.48h13.76z" opacity=".3"/>
            <path fill="#E8819C" d="M100.887 29.93l-4.723-6.405 1.795-5.282c.14-.431.173-.887.094-1.332L95.55 2.604l-1.685 2.335a2.401 2.401 0 0 0-.425 1.915l.11 8.246-6.99 6.555 4.173 4.13 2.377 6.66 7.777-2.514zM39.584 27.506l4.723-6.405-1.747-5.283a2.624 2.624 0 0 1-.11-1.347L44.967.165l1.685 2.334c.407.564.555 1.261.41 1.93l-.725 9.564 6.77 6.764-3.322 2.604-2.393 6.66-7.809-2.515z"/>
            <path fill="#242552" d="M75.919 75.59l19.899-3.233 11.665-12.975-16.987-30.095 10.155-3.95 23.881 37.023s-13.554 18.767-24.448 29.452L92.7 148.276H48.936l-9.1-56.464a283.904 283.904 0 0 1-25.015-31.95l25.818-37.624 8.533 5.987-17.003 30.873 10.233 13.244 15.35 3.233 11.46 5.193 6.707-5.178z"/>
            <path fill="#B93B85" d="M48.936 148.291l-13.161 67.584-10.721 55.087h15.349l13.649-48.098 17.207-48.638 15.632 49.745 12.358 46.991h15.916l-22.449-122.67z"/>
            <path fill="#191C3C" d="M48.196 146.93h45.229v4.968H48.196z"/>
            <path fill="#FEC55E" d="M65.749 146.93h10.123v4.968H65.749z"/>
            <path fill="#C325FE" d="M63.718 85.661l1.763 3.607 7.651.015 1.874-3.352-5.794-4.999z"/>
            <path fill="#191C3C" d="M95.896 124.87c-10.5.12-31.375.943-23.897-35.602h-4.25s-11.477 42.367 26.51 47.216l1.637-11.613z" opacity=".3"/>
            <path fill="#E8819C" d="M51.974 48.158c.004-.295.03-.59.079-.883l-.08.883zM75.808 59.562c1.392-3.395-.093-7.244-3.463-8.98l-8.123-6.24a4.476 4.476 0 0 0-1.748-.987 4.56 4.56 0 0 0-2.582.404 31.089 31.089 0 0 0-7.87 4.49c-.111 2.319 1.164 3.68.818 6.285a63.845 63.845 0 0 1-2.267 7.258c1.218.332 2.48.498 3.747.494-.174 4.085 0 8.32 4.486 9.892 3.353 1.182 5.668.748 9.068.284 1.207-.189 2.4-.448 3.574-.778 1.983-.479 5.116-.973 5.116-.973.614-3.232-1.417-8.006-.756-11.149z"/>
            <path fill="#191C3C" d="M67.103 57.108c0-1.497.677-3.532.33-5.059-.346-1.526-2.015-2.29-3.29-3.217-1.936-1.407-4.817-1.152-7.147-.614-.63.15-1.228.374-1.842.524-2.024.624-4.245.035-5.636-1.496-2.33-2.994-2.818-10.626 2.991-10.087 1.26.12 2.44.599 3.7.778 4.408.629 8.942-2.559 13.176-1.212 1.81.584 3.605 1.496 5.416 2.11.666.198 1.29.507 1.842.913.451.431.814.939 1.07 1.496l2.787 4.744c.257.352.394.77.393 1.198 0 .419-.488.838-.913.688l3.149 5.447a5.08 5.08 0 0 0-1.842 0c-.62.137-1.092.616-1.197 1.213-.078.838.82 1.406 1.575 1.915.755.509 1.338 1.497.74 2.125-.317.228-.674.4-1.055.51-2.63 1.151.378 2.992.756 4.489.131.393.015.823-.3 1.107-.177.12-.374.21-.582.27-1.89.568-2.409 1.152-1.417 3.097.158.3.33.674.142.943-.19.27-1.07 0-1.653.12a2.02 2.02 0 0 0-.74.374 4.523 4.523 0 0 1-4.36.15c-3.732-2.006-.646-5.597-.19-8.5.095-.584-.267-1.213 0-1.737.63-1.212 1.575-5.507-1.07-5.507s-4.85 5.433-4.833 3.218z"/>
            <path fill="#191C3C" d="M66.253 60.43l1.039-16.357 3.337.18-.819 12.915c-.016.88-.4 1.72-1.068 2.331a3.595 3.595 0 0 1-2.49.931zM40.529 26.563c-.061.448-.462.783-.937.783-.474 0-.875-.335-.937-.783a.883.883 0 0 1 .43-.873.986.986 0 0 1 1.014 0c.31.187.477.528.43.873z"/>
            <ellipse cx="100.887" cy="29.931" fill="#191C3C" rx="1" ry="1"/>
            <ellipse cx="69.685" cy="142.485" fill="#191C3C" rx="1" ry="1"/>
            <ellipse cx="69.685" cy="131.096" fill="#191C3C" rx="1" ry="1"/>
            <ellipse cx="69.685" cy="119.693" fill="#191C3C" rx="1" ry="1"/>
            <path fill="#191C3C" d="M24.204 270.962l-2.346 2.424-12.405 1.347c-2.85.943-3.354 1.497-4.22 4.22l-.22.689h25.598l1.826-2.17v2.17h8.391v-8.68H24.204zM115.449 270.962l2.361 2.424 12.39 1.347c2.85.943 3.353 1.497 4.219 4.22l.22.689h-25.66l-1.827-2.17v2.17h-8.39v-8.68H115.448zM55.248 57.362c-1.165 0-1.7-2.155-1.7-4.16 0-2.006.535-4.16 1.7-4.16s1.685 2.154 1.685 4.16c0 2.005-.535 4.16-1.685 4.16zm0-7.483c-.252 0-.834 1.243-.834 3.353 0 2.11.582 3.292.834 3.337.252.045.835-1.227.835-3.337 0-2.11-.63-3.338-.835-3.383v.03z"/>
            <path fill="#191C3C" d="M56.508 52.798h10.217v1H56.508zM52.808 52.798h1.228v1h-1.228z"/>
            <path fill="#C325FE" d="M66.473 89.283s-6.612 49.101 39.577 44.103l4.267-6.226-4.833-6.345s-36.209 12.66-33.501-31.547l-5.51.015z"/>
            <path fill="#191C3C" d="M55.09 75.335l6.629 13.933 6.643-7.677-5.92-5.178zM83.57 75.335l-7.006 13.948-6.974-8.5 5.92-5.178z" opacity=".3"/>
            <path fill="#B93B85" d="M54.84 74.916l7.445 12.033 6.927-6.166-5.92-5.178zM84.278 74.228l-8.139 12.72-6.927-6.165 5.92-5.178z"/>
        </g>
        <g fill-rule="nonzero">
            <g transform="translate(338.823 -8)">
                <ellipse cx="53.968" cy="43.161" fill="#F9CF23" rx="34.935" ry="36.558" transform="rotate(-76.85 53.968 43.16)"/>
                <path fill="#F9CF23" d="M33.926 67.946h40.081v26.608H33.926z"/>
                <path fill="#BEBCBA" d="M76.604 96.111L63.27 106.707H43.434L31.328 96.11V79.455h45.276z"/>
                <rect width="49.117" height="3.188" x="29.36" y="80.981" fill="#F5F7F9" rx=".54"/>
                <rect width="49.117" height="3.188" x="29.36" y="86.309" fill="#F5F7F9" rx=".54"/>
                <rect width="49.117" height="3.188" x="29.36" y="91.651" fill="#F5F7F9" rx=".54"/>
                <path fill="#C325FE" d="M42.868 106.198h20.56v3.083c0 1.76-1.502 3.187-3.354 3.187H46.205c-1.852 0-3.353-1.427-3.353-3.187v-3.083h.016z"/>
                <ellipse cx="53.928" cy="43.154" fill="#F9DC62" rx="25.467" ry="26.648" transform="rotate(-76.77 53.928 43.154)"/>
                <path fill="#F9CF23" d="M14.294 44.391H1.574c-.713 0-1.29-.55-1.29-1.227 0-.678.577-1.227 1.29-1.227h12.752c.713 0 1.29.55 1.29 1.227 0 .678-.577 1.227-1.29 1.227h-.032zM15.648 34.634c-.11.014-.22.014-.33 0L9.02 33.032c-.681-.182-1.09-.842-.93-1.496.185-.652.889-1.04 1.575-.868l6.297 1.586c.686.175 1.093.844.913 1.497-.155.522-.657.883-1.228.883zM19.6 25.55a1.425 1.425 0 0 1-.646-.165l-11.02-5.986c-.552-.371-.716-1.082-.376-1.638.34-.556 1.07-.774 1.683-.502l11.02 5.986c.5.287.737.854.584 1.39-.154.535-.662.908-1.245.915zM25.913 17.798a1.392 1.392 0 0 1-.93-.36l-4.391-4.175a1.206 1.206 0 0 1-.424-1.235c.114-.455.488-.81.966-.919.478-.109.98.047 1.3.403l4.329 4.116a1.2 1.2 0 0 1 0 1.75c-.217.239-.521.389-.85.42zM81.988 17.798a1.323 1.323 0 0 1-.928-.39 1.184 1.184 0 0 1-.385-.867c0-.327.138-.64.385-.868l4.565-4.16c.242-.231.57-.36.913-.36.343 0 .671.129.913.36.246.227.385.54.385.867 0 .327-.139.64-.385.868l-4.565 4.16a1.337 1.337 0 0 1-.898.39zM88.301 25.52c-.584 0-1.095-.373-1.246-.91-.151-.536.095-1.102.6-1.38l11.02-6.076a1.364 1.364 0 0 1 1.371-.08c.436.222.703.659.69 1.129-.014.47-.305.892-.754 1.091l-11.02 5.986c-.19.14-.42.224-.66.24zM92.268 34.619c-.668.025-1.246-.438-1.332-1.069-.086-.63.349-1.219 1.002-1.356l6.171-1.586c.447-.115.925.006 1.253.316.328.31.457.764.339 1.19a1.266 1.266 0 0 1-.915.873l-6.187 1.587-.33.045zM93.622 44.376c-.662-.07-1.163-.601-1.163-1.235 0-.633.501-1.165 1.163-1.234h12.768c.662.07 1.163.601 1.163 1.234 0 .634-.501 1.166-1.163 1.235H93.622zM99.337 55.914c-.11.014-.221.014-.33 0l-7.053-1.796c-.681-.182-1.09-.841-.93-1.496.185-.652.888-1.04 1.575-.868l7.069 1.796c.331.08.615.284.786.566.172.281.218.617.127.93-.167.52-.673.872-1.244.868zM99.384 69.278a1.425 1.425 0 0 1-.645-.164l-11.02-6.061a1.22 1.22 0 0 1-.642-1.07c.003-.44.252-.844.654-1.062a1.353 1.353 0 0 1 1.294.007l11.02 5.986c.497.285.736.849.587 1.382-.15.534-.651.91-1.232.922l-.016.06zM86.585 75.324a1.392 1.392 0 0 1-.929-.359l-4.502-4.295a1.17 1.17 0 0 1-.392-.868c0-.328.142-.642.392-.868.242-.23.57-.36.913-.36.343 0 .671.13.913.36l4.487 4.235c.242.23.378.543.378.868 0 .326-.136.638-.378.868-.22.25-.54.401-.882.42zM21.505 75.324c-.343 0-.671-.129-.913-.359a1.2 1.2 0 0 1 0-1.75l4.439-4.221a1.345 1.345 0 0 1 1.834-.008c.509.48.512 1.26.008 1.744l-4.44 4.22c-.24.244-.577.38-.928.374zM8.596 69.368a1.32 1.32 0 0 1-1.118-.613 1.16 1.16 0 0 1-.136-.933c.09-.316.308-.584.608-.744l11.02-6.09a1.364 1.364 0 0 1 1.37-.08c.437.221.704.658.69 1.128-.013.47-.305.893-.753 1.092l-11.02 6.075c-.2.115-.429.172-.661.165zM9.855 55.69c-.668.025-1.246-.438-1.332-1.069-.086-.63.349-1.218 1.001-1.356l5.794-1.496c.447-.115.925.005 1.253.316.328.31.457.764.338 1.19a1.266 1.266 0 0 1-.914.873l-5.81 1.497-.33.045z"/>
            </g>
        </g>
        <g stroke="#191C3C">
            <path d="M57.988 352.294H613.66"/>
        </g>
    </g>
</svg>
