<svg xmlns="http://www.w3.org/2000/svg" xmlns:xlink="http://www.w3.org/1999/xlink" width="542" height="473" viewBox="0 0 542 473">
    <defs>
        <path id="a" d="M.098 63.555C12.718 53.347 19.765 31.983 21.333.532l34.074.033C56.913 32.02 63.92 53.397 76.52 63.63L.098 63.555"/>
        <linearGradient id="b" x1="50%" x2="50.081%" y1="84.046%" y2="15.932%">
            <stop offset="0%" stop-color="#F9CF23"/>
            <stop offset="100%" stop-color="#E3B32C"/>
        </linearGradient>
        <path id="d" d="M3.883.175L41.89.213c2.037.002 3.687 1.686 3.685 3.76l-.008 7.754c-.002 2.075-1.654 3.755-3.691 3.752l-38.009-.037c-2.036-.003-3.686-1.686-3.684-3.76l.008-7.754C.193 1.853 1.846.173 3.883.175"/>
        <linearGradient id="e" x1="-.001%" y1="50.002%" y2="50.002%">
            <stop offset="0%" stop-color="#F9CF23"/>
            <stop offset="100%" stop-color="#E3B32C"/>
        </linearGradient>
        <path id="g" d="M9.898.125L96.291.21c2.419.002 4.55 1.406 5.243 3.455l4.113 12.143L.51 15.704 4.647 3.57C5.345 1.522 7.479.122 9.898.125"/>
        <linearGradient id="h" x1="0%" y1="50.002%" y2="50.002%">
            <stop offset="0%" stop-color="#F9CF23"/>
            <stop offset="100%" stop-color="#E3B32C"/>
        </linearGradient>
        <path id="j" d="M45.41 122.663l-.02-.451c-.125-2.863 1.773-5.381 4.524-6.135 3.79-1.039 8.424-3.381 8.206-8.614-.356-8.565-10.345-14.805-21.911-22.03C19 74.68-2.415 61.301.519 32.625c1.257-12.284 6.24-21.25 14.814-26.648C29.168-2.735 47.126.983 55.349 3.273l.86 13.168c-6.008-2.175-23.873-6.378-34.267.19-5.2 3.286-8.141 8.938-8.995 17.279-2.135 20.872 13.405 30.58 29.858 40.86C56.16 83.113 69.97 91.74 70.602 106.939c.536 12.893-9.061 18.979-17.6 21.312-3.723 1.017-7.422-1.714-7.592-5.588"/>
        <linearGradient id="k" x1="0%" x2="99.999%" y1="50%" y2="50%">
            <stop offset="0%" stop-color="#F9CF23"/>
            <stop offset="100%" stop-color="#E3B32C"/>
        </linearGradient>
        <path id="m" d="M25.626 122.842l.02-.454c.132-2.875-1.761-5.408-4.51-6.171-3.788-1.051-8.417-3.413-8.19-8.669.374-8.602 10.375-14.85 21.955-22.085C52.13 74.7 73.57 61.303 70.694 32.493c-1.233-12.34-6.199-21.357-14.76-26.795-13.82-8.78-31.785-5.08-40.012-2.796l-.885 13.224c6.012-2.172 23.885-6.359 34.266.26 5.193 3.31 8.124 8.993 8.96 17.372 2.096 20.97-13.464 30.69-29.937 40.983-13.372 8.353-27.2 16.992-27.86 32.256-.562 12.95 9.024 19.081 17.558 21.442 3.721 1.029 7.425-1.707 7.602-5.597"/>
        <linearGradient id="n" x1="0%" y1="50%" y2="50%">
            <stop offset="0%" stop-color="#F9CF23"/>
            <stop offset="100%" stop-color="#E3B32C"/>
        </linearGradient>
        <path id="p" d="M248.884.745L.314.5l5.638 17.578c10.888.01 19.813 8.566 20.32 19.413 4.167 89.172 29.828 156.785 77.342 180.433l40.47.04c47.092-23.86 73.283-91.274 78.473-180.478.626-10.764 9.537-19.185 20.348-19.175h.305L248.884.745"/>
        <linearGradient id="q" x1="0%" y1="50%" y2="50%">
            <stop offset="0%" stop-color="#F9CF23"/>
            <stop offset="100%" stop-color="#E3B32C"/>
        </linearGradient>
        <path id="s" d="M16.482 2.703c-3.762-3.788-6.387-1.56-8.322-.889-2.57.893-3.951.89-6.545 1.272-4.427.654 3.412 14.77 5.362 21.186.592 1.946 1.483-.112 15.149-9.665 1.85-1.293-.514-6.74-5.644-11.904"/>
        <linearGradient id="t" x1="118.766%" x2="42.454%" y1="27.682%" y2="58.929%">
            <stop offset="0%" stop-color="#C325FE"/>
            <stop offset="6.137%" stop-color="#C125FA"/>
            <stop offset="100%" stop-color="#7A2998"/>
        </linearGradient>
        <path id="v" d="M44.725 22.993c-.06-8.091-2.649-19.856-8.211-22.2-.937-.394-3.558.68-5 .609a1.089 1.089 0 0 0-1.126.82c-.84 3.489-4.923 13.173-15.986-1.787C7.883 1.855 4.48 2.397 2.259 6.93c-6.404 13.06 3.085 34.952 1.363 50.13-.643 5.672 29.656 6.316 36.688.827 4.953-3.867 4.547-17.24 4.415-34.893"/>
        <linearGradient id="w" x1="52.635%" x2="47.981%" y1="-39.178%" y2="113.632%">
            <stop offset="0%" stop-color="#C325FE"/>
            <stop offset="100%" stop-color="#7A2998"/>
        </linearGradient>
        <path id="y" d="M9.398 31.249c-5-3.234-9.067-4.945-9.067-4.945S7.677 2.872 22.386.458c-1.782 3.389 4.185 21.669-3.34 32.501-1.435 2.067-5.726.826-9.648-1.71"/>
        <linearGradient id="z" x1="56.05%" x2="27.238%" y1="-39.178%" y2="80.218%">
            <stop offset="0%" stop-color="#C325FE"/>
            <stop offset="100%" stop-color="#7A2998"/>
        </linearGradient>
        <path id="B" d="M16.866 18.726c1.645 1.115 8.446 7.586 7.213 11.782-5.777 19.657 1.443 23.3 1.443 23.3C18.127 34.736 11.352 11.296.502.54c0 0 11.048 2.69 16.201 10.843 2.538 4.016.163 7.344.163 7.344"/>
        <linearGradient id="C" x1="58.205%" x2="47.042%" y1="37.035%" y2="54.673%">
            <stop offset="0%" stop-color="#F9CF23"/>
            <stop offset="100%" stop-color="#E3B32C"/>
        </linearGradient>
        <linearGradient id="E" x1="55.739%" x2="45.604%" y1="-39.178%" y2="113.632%">
            <stop offset="0%" stop-color="#C325FE"/>
            <stop offset="100%" stop-color="#7A2998"/>
        </linearGradient>
        <path id="F" d="M69.213 33.576a82.54 82.54 0 0 0-5.366-14.583c-1.182-2.46-5.857-14.51-5.347-17.51.128-.756-17.643 3.668-20.908 3.766-5.718.172-11.442-1.067-16.016-4.682-.76-.601-1.71-.002-2.031.735-2.322 5.339-5.851 9.99-8.905 14.902A63.348 63.348 0 0 0 3.66 31.73C.415 42.727-.11 54.346.411 65.744c.05 1.083 12.847 6.383 17.5 7.222 4.397.793 13.415.709 17.867.328 9.054-.774 34.645-4.664 35.792-9.807 2.319-10.406.374-19.606-2.357-29.911"/>
        <linearGradient id="G" x1="58.219%" x2="50%" y1="18.096%" y2="116.705%">
            <stop offset="0%" stop-color="#C325FE"/>
            <stop offset="100%" stop-color="#7A2998"/>
        </linearGradient>
        <path id="I" d="M2.15 17.035c2.137 3.156 5.36 5.051 8.516 7.1 1.105.717 2.154 1.405 2.19 2.026.1 1.692-.819 3.531-1 5.21-.43 3.975.304 8.796 4.746 10.975 2.05 1.005 4.346 1.103 6.208 2.077 3.053 1.597 2.51 1.715 4.037 3.505 2.99 3.505 7.25 3.312 9.405.016.38-.583 1.111-1.607 1.573-.636.916 1.93 5.882-.621 4.468-3.169-.833-1.501.811-.456 2.573-.334 3.724.258 7.515.75 10.9-.638 3.143-1.29 5.584-4.002 5.862-7.444.299-3.684-2.333-7.742-5.424-10.15-1.495-1.165-3.175-1.81-4.978-2.167-.264-.053 1.42-4.842-.682-9.296-1.593-3.374-8.778 1.746-12.497-4.062-1.132-1.768-2.315-3.624-4.097-4.892-3.107-2.21-6.683-2.291-9.822-1.02-1.05.426-2.382 1.47-3.586 1.5-.922.025-1.5-.61-2.268-1.256-2.806-2.36-5.67-4.565-9.402-4.17C.735 1.07-2.34 10.402 2.15 17.035"/>
        <linearGradient id="J" x1="11.671%" x2="74.725%" y1="7.597%" y2="77.331%">
            <stop offset="0%" stop-color="#3C4A8D"/>
            <stop offset="100%" stop-color="#242552"/>
        </linearGradient>
        <path id="L" d="M9.041 2.246C4.816 3.168 5.968.507 4.067.428 2.372.357.844 1.438.39 2.502-.608 4.842 2.547 8.55 6.675 5.78c2.3-1.542 6.017.493 6.176-.912.098-.857-1.163-3.2-3.81-2.622"/>
        <linearGradient id="M" x1="-276.457%" x2="54.42%" y1="-175.262%" y2="55.802%">
            <stop offset="0%" stop-color="#3C4A8D"/>
            <stop offset="100%" stop-color="#242552"/>
        </linearGradient>
        <path id="O" d="M2.258 1.282c.924-.075.656.22 1.515.375.766.137 1.571-.078 1.885-.36.691-.624-.304-1.498-2.465-.964C1.988.631.96-.11.56.227.058.651.643 1.412 2.258 1.282"/>
        <linearGradient id="P" x1="-912.003%" x2="11.945%" y1="-198.415%" y2="39.183%">
            <stop offset="0%" stop-color="#3C4A8D"/>
            <stop offset="100%" stop-color="#242552"/>
        </linearGradient>
        <path id="R" d="M3.084.439C5.94-.721 8.308 1.813 5.597 5.236 4.081 7.15 4.234 8.988 3.004 9.516.66 10.52-1.884 2.458 3.084.439"/>
        <linearGradient id="S" x1="-129.362%" x2="138.331%" y1="-315.733%" y2="223.295%">
            <stop offset="0%" stop-color="#3C4A8D"/>
            <stop offset="100%" stop-color="#242552"/>
        </linearGradient>
        <path id="U" d="M15.78 12.542c-2.55-1.76.11-3.978-1.438-6.368-1.356-2.091-3.114-2.343-4.084-4.612-.974-2.277-2.561-.29-6.126-1.078C.734-.267-1.12 4.277 1.371 8.741c1.543 2.763 4.057 3.998 6.506 3.897 2.726-.114 2.817 2.547 4.81 2.92 3.18.598 5.856-1.54 5.856-1.54s-1.04-.284-2.764-1.476"/>
        <linearGradient id="V" x1="-102.04%" x2="98.349%" y1="-123.267%" y2="114.932%">
            <stop offset="0%" stop-color="#3C4A8D"/>
            <stop offset="100%" stop-color="#242552"/>
        </linearGradient>
        <linearGradient id="X" x1="63.29%" x2="39.82%" y1="-16.982%" y2="97.795%">
            <stop offset="0%" stop-color="#C325FE"/>
            <stop offset="100%" stop-color="#7A2998"/>
        </linearGradient>
        <linearGradient id="Y" x1="54.246%" x2="46.748%" y1="-39.178%" y2="113.632%">
            <stop offset="0%" stop-color="#C325FE"/>
            <stop offset="100%" stop-color="#7A2998"/>
        </linearGradient>
        <path id="Z" d="M39.621 39.174c-8.89-11.14-16.372-18.117-20.366-24.527C14.936 7.713 13.187.387 13.187.387L.967 1.17s-1.546 8.91.38 22.22C3.79 40.282 27.523 50.128 27.014 56.282c-2.161 26.12-.697 41.293-.697 41.293 5.125 2.66 10.274-.253 10.274-.253s2.148-15.348 4.69-26.28c4.523-19.447 5.129-23.361-1.66-31.868"/>
        <linearGradient id="aa" x1="50.732%" x2="48.3%" y1=".599%" y2="99.352%">
            <stop offset="0%" stop-color="#B93B85"/>
            <stop offset="100%" stop-color="#4B4186"/>
        </linearGradient>
        <path id="ac" d="M38.907 38.938C17.547 18.22 22.676 2.262 22.676 2.262L7.462.556S.391 14.301.195 27.766c-.251 17.346 29.737 23.326 28.574 29.98-3.509 20.082.28 42.423.28 42.423 5.138 2.662 10.16.484 10.16.484s1.833-12.518 5.155-23.26c7.566-24.47.332-32.841-5.457-38.455"/>
        <linearGradient id="ad" x1="51.071%" x2="48.546%" y1=".997%" y2="99.284%">
            <stop offset="0%" stop-color="#B93B85"/>
            <stop offset="100%" stop-color="#4B4186"/>
        </linearGradient>
        <path id="af" d="M8.44 29.549c3.814 2.694 8.707 3.868 13.439 4.065 5.144.214 8.625-.628 13.693-1.741-.72-4.531-.098-8.337.201-10.868.138 5.742.929 6.398 1.027 10.531.468-.098 3.475-.79 3.944-.88-2.54-.947-.802-11.95-3-18.17-3.161-8.943-6.705-7.981-8.358-8.523-.927-.304-2.859-4.023-8.134-3.574C14.52.96 9.883 3.653 5.404 14.783c-1.149 2.856-2.308 5.551-5.071 8.43 2.488 1.24 5.783 4.694 8.107 6.336"/>
        <linearGradient id="ag" x1="66.06%" x2="45.888%" y1="17.924%" y2="83.658%">
            <stop offset="0%" stop-color="#F9CF23"/>
            <stop offset="100%" stop-color="#E3B32C"/>
        </linearGradient>
        <path id="ai" d="M2.816 21.29C-.992 18.636.165.131 4.331.084c4.171-.048 8.284 5.984 9.528 14.99.395 2.86.168 5.504-4.35 5.704-4.718.208-4.495 2.044-6.693.512"/>
        <linearGradient id="aj" x1="45.453%" x2="52.641%" y1="-43.1%" y2="132.167%">
            <stop offset="0%" stop-color="#3C4A8D"/>
            <stop offset="100%" stop-color="#242552"/>
        </linearGradient>
        <path id="al" d="M2.012 4.532C3.727 2.089 8.36 1.115 10.666.21c.32.779 1.723 8.894 7.418 9.837 4.45.735 4.47-6.483 3.689-8.46 4.882 3.01 9.287 15.063 7.15 18.861-3.396 6.034-2.341 4.956-2.687 10.35-.598 9.336-23.52 11.606-24.726 1.033C-.015 18.464-.341 7.885 2.012 4.532"/>
        <linearGradient id="am" x1="52.553%" x2="48.084%" y1="-16.35%" y2="81.487%">
            <stop offset="0%" stop-color="#3C4A8D"/>
            <stop offset="100%" stop-color="#242552"/>
        </linearGradient>
        <path id="ao" d="M.547 28.445l9.92-22.382a1.76 1.76 0 0 1 1.22-1.007L32.776.322c.442-.1.794.373.578.775l-10.793 20.06L.547 28.444"/>
        <linearGradient id="ap" x1="0%" x2="100.001%" y1="50%" y2="50%">
            <stop offset="0%" stop-color="#3C4A8D"/>
            <stop offset="100%" stop-color="#242552"/>
        </linearGradient>
        <path id="ar" d="M18.922 18.46L.212 7.34 22.039.3l3.564 2.29-6.68 15.872"/>
        <linearGradient id="as" x1="0%" y1="50%" y2="50%">
            <stop offset="0%" stop-color="#3C4A8D"/>
            <stop offset="100%" stop-color="#242552"/>
        </linearGradient>
        <path id="au" d="M13.826 21.544c4.744-.834-.544-22.2-4.889-21.37C3.867 1.143 1.05 6.523.52 16.576c-.13 2.459-.018 5.893 3.23 6.038 1.945.088 5.874-.331 10.077-1.07"/>
        <linearGradient id="av" x1="31.989%" x2="59.399%" y1="-33.328%" y2="127.579%">
            <stop offset="0%" stop-color="#3C4A8D"/>
            <stop offset="100%" stop-color="#242552"/>
        </linearGradient>
    </defs>
    <g fill="none" fill-rule="evenodd">
        <path fill="#E5F4F8" d="M531.697 451H10.303C4.613 451 0 455.925 0 462s4.613 11 10.303 11h521.394c5.69 0 10.303-4.925 10.303-11s-4.613-11-10.303-11"/>
        <g transform="translate(228 372)">
            <mask id="c" fill="#fff">
                <use xlink:href="#a"/>
            </mask>
            <path fill="url(#b)" fill-opacity=".8" d="M.098 63.555C12.718 53.347 19.765 31.983 21.333.532l34.074.033C56.913 32.02 63.92 53.397 76.52 63.63L.098 63.555" mask="url(#c)"/>
        </g>
        <g transform="translate(243 360)">
            <mask id="f" fill="#fff">
                <use xlink:href="#d"/>
            </mask>
            <path fill="url(#e)" fill-opacity=".8" d="M3.883.175L41.89.213c2.037.002 3.687 1.686 3.685 3.76l-.008 7.754c-.002 2.075-1.654 3.755-3.691 3.752l-38.009-.037c-2.036-.003-3.686-1.686-3.684-3.76l.008-7.754C.193 1.853 1.846.173 3.883.175" mask="url(#f)"/>
        </g>
        <g transform="translate(214 436)">
            <mask id="i" fill="#fff">
                <use xlink:href="#g"/>
            </mask>
            <path fill="url(#h)" fill-opacity=".8" d="M9.898.125L96.291.21c2.419.002 4.55 1.406 5.243 3.455l4.113 12.143L.51 15.704 4.647 3.57C5.345 1.522 7.479.122 9.898.125" mask="url(#i)"/>
        </g>
        <g transform="translate(115 176)">
            <mask id="l" fill="#fff">
                <use xlink:href="#j"/>
            </mask>
            <path fill="url(#k)" fill-opacity=".8" d="M45.41 122.663l-.02-.451c-.125-2.863 1.773-5.381 4.524-6.135 3.79-1.039 8.424-3.381 8.206-8.614-.356-8.565-10.345-14.805-21.911-22.03C19 74.68-2.415 61.301.519 32.625c1.257-12.284 6.24-21.25 14.814-26.648C29.168-2.735 47.126.983 55.349 3.273l.86 13.168c-6.008-2.175-23.873-6.378-34.267.19-5.2 3.286-8.141 8.938-8.995 17.279-2.135 20.872 13.405 30.58 29.858 40.86C56.16 83.113 69.97 91.74 70.602 106.939c.536 12.893-9.061 18.979-17.6 21.312-3.723 1.017-7.422-1.714-7.592-5.588" mask="url(#l)"/>
        </g>
        <g transform="translate(345 176)">
            <mask id="o" fill="#fff">
                <use xlink:href="#m"/>
            </mask>
            <path fill="url(#n)" fill-opacity=".8" d="M25.626 122.842l.02-.454c.132-2.875-1.761-5.408-4.51-6.171-3.788-1.051-8.417-3.413-8.19-8.669.374-8.602 10.375-14.85 21.955-22.085C52.13 74.7 73.57 61.303 70.694 32.493c-1.233-12.34-6.199-21.357-14.76-26.795-13.82-8.78-31.785-5.08-40.012-2.796l-.885 13.224c6.012-2.172 23.885-6.359 34.266.26 5.193 3.31 8.124 8.993 8.96 17.372 2.096 20.97-13.464 30.69-29.937 40.983-13.372 8.353-27.2 16.992-27.86 32.256-.562 12.95 9.024 19.081 17.558 21.442 3.721 1.029 7.425-1.707 7.602-5.597" mask="url(#o)"/>
        </g>
        <g transform="translate(142 142)">
            <mask id="r" fill="#fff">
                <use xlink:href="#p"/>
            </mask>
            <path fill="url(#q)" fill-opacity=".6" d="M248.884.745L.314.5l5.638 17.578c10.888.01 19.813 8.566 20.32 19.413 4.167 89.172 29.828 156.785 77.342 180.433l40.47.04c47.092-23.86 73.283-91.274 78.473-180.478.626-10.764 9.537-19.185 20.348-19.175h.305L248.884.745" mask="url(#r)"/>
        </g>
        <path fill="#242552" d="M321 162l-142-.197V161l142 .197V162M173.174 381.568c-2.641 0-5.298.862-7.72 2.537-3.443 2.382-5.996 6.123-7.187 10.533-1.19 4.41-.876 8.958.885 12.805 1.755 3.832 4.737 6.51 8.397 7.54 7.573 2.13 15.73-3.529 18.184-12.616 1.19-4.41.876-8.958-.885-12.806-1.755-3.832-4.737-6.51-8.397-7.54a12.069 12.069 0 0 0-3.277-.453zM170.799 416a12.52 12.52 0 0 1-3.398-.47c-3.82-1.074-6.928-3.86-8.753-7.846-1.818-3.97-2.144-8.657-.917-13.197l.267.075-.267-.075c1.226-4.54 3.858-8.395 7.412-10.853 3.567-2.468 7.635-3.235 11.455-2.16 3.82 1.074 6.93 3.861 8.754 7.847 1.818 3.97 2.144 8.656.917 13.196-2.172 8.045-8.697 13.482-15.47 13.483z"/>
        <path fill="#FFFFFE" d="M167.763 409.966c.552.162 1.144-.266 1.323-.957l.031-.122c.153-.59.615-1.005 1.107-.983 2.237.103 4.46-1.184 5.223-4.136 1.118-4.324-1.78-5.864-4.534-7.15-1.586-.73-3.061-1.482-2.642-3.104.444-1.72 2.09-1.87 3.719-1.39 1.07.315 2.072 1.155 2.562 2.088.225.43.62.67 1.05.563l.458-.114c.665-.164 1.126-1.052.866-1.779-.447-1.253-1.232-2.076-2.166-2.678-.411-.266-.595-.858-.447-1.432.068-.262.151-.774.037-1.035-.226-.517-1.621-.716-1.621-.716-.33-.096-.684.142-.81.547-.15.481-.358 1.036-.532 1.095-.877.298-4.459-.266-5.688 4.095-1.142 4.05 1.537 5.502 4.243 6.72 1.757.808 3.234 1.877 2.816 3.498-.496 1.917-2.322 2.198-4.09 1.678-1.333-.392-2.572-1.482-3.046-2.812-.184-.518-.6-.832-1.075-.734l-.574.12c-.66.136-1.132.986-.923 1.73.507 1.805 1.65 3.075 3.06 3.865.439.244.636.86.483 1.452-.179.691.124 1.383.677 1.545l.493.146"/>
        <path fill="#88346D" d="M128.161 256s22.024 9.517 19.662 21.616c-1.708 8.75-12.747 14.428-17.635 17.138-4.001 2.219-21.522-11.238-16.186-14.027 7.045-3.682 13.809-2.094 18.883-6.032 4.232-3.284-6.256-13.45-6.256-13.45l1.532-5.245"/>
        <g transform="translate(121 273)">
            <mask id="u" fill="#fff">
                <use xlink:href="#s"/>
            </mask>
            <path fill="url(#t)" d="M16.482 2.703c-3.762-3.788-6.387-1.56-8.322-.889-2.57.893-3.951.89-6.545 1.272-4.427.654 3.412 14.77 5.362 21.186.592 1.946 1.483-.112 15.149-9.665 1.85-1.293-.514-6.74-5.644-11.904" mask="url(#u)"/>
        </g>
        <path fill="#88346D" d="M127 255.429s-2.747-1.57-7.19-1.419c-1.861.064-4.842 1.026-5.94 1.88-.902.701-1.331 2.617-.144 2.547 4.527-.269 6.13-.096 6.13-.096s-2.384.027-2.566.656c-.121.415.16.716 1.34.914.947.158 2.48.689 3.36.76 1.9.155 3.545.329 3.545.329l1.465-5.571"/>
        <path fill="#4D1253" d="M128 282l1.135 16 4.865-3.014s0-8.73-6-12.986"/>
        <path fill="#B93B85" d="M105.13 453s-.145 3.08-.061 4.862c.078 1.665.333 3.302.92 7.985.143 1.146-1.067 1.623-2.123.56-2.003-2.015-3.866-6.407-3.866-7.75 0-2.26.248-5.657.248-5.657h4.883M122.033 454.129c.366 1.116 1.81 3.57 3.185 5.137.786.893 1.592 1.992-.88 1.68-3.754-.475-7.338-3.557-7.338-4.833v-4.203l4.992-.91s-.225 2.317.041 3.129z"/>
        <path fill="#242552" d="M91.924 332.817c-3.481 10.617-4.924 23.216-3.188 35.782 1.354 9.797 8.452 32.97 7.605 45.54-.608 9.016 3.287 36.107 3.697 40.037.245 2.344 6.563 2.46 7.107.165 1.042-4.385 5.51-25.696 7.052-46.246 1.173-15.632-.467-30.866-.052-37.623 1.311-21.312 2.855-39.078 2.855-39.078s-23.319-3.938-25.076 1.423z"/>
        <path fill="#242552" d="M105 331.338s3.488 68.222 4.494 76.284c2.393 19.165 6.586 37.334 7.162 46.148.117 1.787 6.075 1.59 6.239-.347 1.455-17.27 8.018-67.92 8.103-89.443.04-10.168-.662-22.765-2.685-30.68-1.54-6.02-23.313-1.962-23.313-1.962"/>
        <path fill="#88346D" d="M120.797 279.023c-7.542-6.096-21.647-5.482-26.259 3.34-1.667 3.189.815 9.875 3.665 12.07 3.89 3 9.552 3.006 14.327 1.863 4.7-1.124 9.347-3.416 12.21-6.95 3.264-4.026-.446-7.497-3.943-10.323"/>
        <path fill="#242552" d="M103.235 271.259c3.083 3.855 8.387 3.614 11.258-.535.848-1.227 2.992-2.697 2.407-5.14-.967-4.043-1.098-6.078-1.847-7.623-1.525-3.145-7.702-2.003-9.661-.082-5.558 5.446-5.327 9.418-2.157 13.38"/>
        <path fill="#4F1C3F" d="M117.628 262.167c-.2-.277-.932-.22-1.49.253-.459.39.303 2.713 1.122 2.574.86-.146.954-2.017.368-2.827"/>
        <path fill="#88346D" d="M114.74 277.578c.188-5.671.386-7.153.157-9.388-.241-2.354-10.44-3.157-9.874-.66.808 3.569 1.277 7.445.627 9.435-.61 1.866 9.006 3.16 9.09.613"/>
        <path fill="#4F1C3F" d="M105 268l.622 2.904c.932 2.18 4.664 4.068 6.281 4.096 1.692.03 2.8-2.178 3.097-3.265l-.047-1.446L105 268"/>
        <path fill="#242552" d="M105 266l.459 2.354c.935 2.43 5.157 5.007 7.152 4.604 1.49-.302 2.389-1.715 2.389-3.19l-.494-2.977L105 266"/>
        <path fill="#88346D" d="M112.573 255.077c-1.691-1.247-6.66-2.124-8.533 1.571-1.54 3.04-1.213 7.46-.04 10.178 1.26 2.916 5.915 5.962 9.606 4.99 3.946-1.041 3.663-5.331 3-8.258-.903-3.988-1.292-6.46-4.033-8.481l.692 10.625"/>
        <path fill="#242552" d="M116.616 260.997c-.5.087-.429-1.648-1.25-2.723-1.424-1.867-2.978-.803-3.271-2.35-.293-1.546.067-1.995 1.441-1.915 5.37.313 5.213 6.62 3.08 6.988"/>
        <path fill="#F9CF23" d="M94 280.863c0-2.826 7.844-7.188 8.746-5.477 2.067 3.918 8.148 5.032 10.458 3.74 1.687-.943 2.07-1.936 1.807-3.303-.243-1.264 7.482 3.16 8.19 5.402 2.017 6.393-.42 50.407-.42 50.407s-5.672 1.934-13.916 1.203c-6.168-.548-13.853-2.806-13.853-2.806S94 287.368 94 280.863"/>
        <g transform="translate(87 275)">
            <mask id="x" fill="#fff">
                <use xlink:href="#v"/>
            </mask>
            <path fill="url(#w)" d="M44.725 22.993c-.06-8.091-2.649-19.856-8.211-22.2-.937-.394-3.558.68-5 .609a1.089 1.089 0 0 0-1.126.82c-.84 3.489-4.923 13.173-15.986-1.787C7.883 1.855 4.48 2.397 2.259 6.93c-6.404 13.06 3.085 34.952 1.363 50.13-.643 5.672 29.656 6.316 36.688.827 4.953-3.867 4.547-17.24 4.415-34.893L13 101" mask="url(#x)"/>
        </g>
        <path fill="#4D1253" d="M94.153 288L87 303.496 89.216 313s11.06-5.294 4.937-25"/>
        <path fill="#F9CF23" d="M103 275s5.552 15.52 9.055 12.645c1.318-1.083.873-4.363.873-4.363l-5.318-3.521L103 275"/>
        <path fill="#F9CF23" d="M117.674 277s3.139 6.35-.242 8.669c-1.851 1.27-4.432-1.52-4.432-1.52l4.674-7.149"/>
        <path fill="#FFFFFE" d="M114.644 403l-.644-.008c.007-.407.682-40.814.154-54.973l.644-.019c.53 14.172-.147 54.593-.154 55M94 337.761l.271-.353c6.935 2.738 21 3.145 29.444-.408l.285.348c-4.393 1.848-10.067 2.652-15.534 2.652-5.556 0-10.896-.83-14.466-2.239zM94.244 350l-.244-.527c.029-.01 2.821-1.122 4.073-3.233 1.432-2.417 1.3-5.183 1.299-5.21l.622-.03c.006.12.145 2.951-1.374 5.514-1.357 2.289-4.254 3.438-4.376 3.486M116.133 356a.938.938 0 0 1-.133-.008l.066-.584-.033.292.031-.293c.057.008 1.375.152 2.105-2.319.797-2.701-.044-9.253-.17-9.693l.23-.112-.24-.102.325-.181c.505.208 1.068 7.798.334 10.28-.74 2.51-2.087 2.72-2.515 2.72"/>
        <path fill="#4F1C3F" d="M105.004 265.105c-.424-.15-1.404-.227-1.834.394-.354.511-.092 1.07.216 1.46.331.42 1.206 1.232 2.11 1 1.078-.277.195-2.613-.492-2.854"/>
        <path fill="#242552" d="M114.099 256.406c.135 1.879-2.012.954-2.54 2.247-.5 1.218-1.746 1.62-4.256 2.16-2.085.45-1.26 1.933-2.203 3.577-.756 1.318-5.4 3.324-5.007-1.141.263-2.987-3.372-6.895 1.333-9.13 4.197-1.994 2.405-5.167 8.432-3.778 2.163.499 4.59.63 5.044 2.123.482 1.58-.985 1.418-.803 3.942"/>
        <path fill="#88346D" d="M90.205 354.664c.297.237 2.608 1.15 4.02 1.298 2.466.258 3.15-.855 2.594-1.447-3.045-3.248-4.598-4.467-4.598-4.467s1.445 3.086 2.398 3.027c.625-.039.913-1.49.197-2.545-.575-.847-1.257-3.257-1.857-3.982-1.064-1.285-4.541-3.548-4.541-3.548L84 347.363s2.682 4.489 6.205 7.301z"/>
        <path fill="#88346D" d="M84.412 346.233s-13.175-16.71-12.377-29.951c.8-13.297 2.09-19 11.967-29.86 3.059-3.364 10.39-.454 9.982 5.53-.494 7.233-7.168 20.896-7.932 28.643-.684 6.933-.93 14.828 4.074 24.34 1.947 3.7-5.714 1.298-5.714 1.298"/>
        <g transform="translate(73 277)">
            <mask id="A" fill="#fff">
                <use xlink:href="#y"/>
            </mask>
            <path fill="url(#z)" d="M9.398 31.249c-5-3.234-9.067-4.945-9.067-4.945S7.677 2.872 22.386.458c-1.782 3.389 4.185 21.669-3.34 32.501-1.435 2.067-5.726.826-9.648-1.71" mask="url(#A)"/>
        </g>
        <path fill="#242552" d="M106.162 90.476c-1.065.815 3.465.29 3.608 7.03.041 1.946 6.243-2.3 5.086-5.006 0 0-3.149-6.272-8.694-2.024"/>
        <path fill="#3C4A8D" d="M91.178 112.251s-8.282 2.35-3.898 16.663C91.261 141.911 103.702 154 103.702 154c12.521-10.465 3.719-25.647-.266-43.437-2.45-10.937 7.514-26.312 12.564-18.575-5.573-12.65-29.351.465-24.822 20.263"/>
        <path fill="#242552" d="M139.156 176c-17.244.002-33.476-10.913-39.063-26.508-.935-2.609-1.941-5.943-3.007-9.472a919.83 919.83 0 0 0-1.042-3.438c-6.917-22.578-.368-34.29 3.15-40.582l.503.279c-3.476 6.217-9.947 17.79-3.103 40.135.35 1.145.7 2.3 1.044 3.44 1.063 3.523 2.067 6.85 2.997 9.446 5.507 15.368 21.515 26.126 38.519 26.127a39.4 39.4 0 0 0 1.82-.04l.026.572c-.615.027-1.231.041-1.844.041"/>
        <path fill="#3C4A8D" d="M119.118 142s-8.829 4.515-10.755 11.087C105.451 163.019 121 168 121 168c-.258-9.583-7.05-15.046-1.882-26"/>
        <path fill="#242552" d="M130.811 174c-5.04-1.916-16.865-7.892-17.811-21.958l.559-.042c.922 13.716 12.504 19.563 17.441 21.44l-.189.56"/>
        <path fill="#589BC8" d="M382 125.924s20.863 2.494 35.694-21.117C427.024 89.954 421.21 78 421.21 78c-19.162 2.077-17.863 38.552-39.21 47.924"/>
        <path fill="#242552" d="M402.425 116l-.425-.353c17.011-23.322 21.972-41.038 16.085-57.442l.503-.205c5.963 16.613.978 34.5-16.163 58M153.937 67c-4.331-11.454-4.49-27.263 3.747-34l.316.455c-8.026 6.565-7.834 22.071-3.578 33.328l-.485.217"/>
        <path fill="#242552" d="M159.885 15.565C176.042 8.47 183 0 183 0c-14.868 36.186-26.919 30.514-31.528 51 0 0-21.487-22.306 8.413-35.435"/>
        <path fill="#B93B85" d="M157.31 31.41s-6.385-7.305-8.499.089C145.901 41.682 151.758 51 151.758 51 155.675 34.518 175.695 31.45 183 0c-14.413 24.816-24 10.04-25.69 31.41"/>
        <path fill="#242552" d="M360.496 33C354.583 21.91 344.49 14.116 339 10.457l.321-.457c5.535 3.688 15.71 11.548 21.679 22.745l-.504.255"/>
        <path fill="#242552" d="M361.456 22.849s9.138 2.592 6.95 14.635C364.52 58.871 372.256 70 372.256 70c4.926-24.567-15.881-44.822-25.256-53.211 0 0 15.185-4.012 14.456 6.06"/>
        <g transform="translate(347 16)">
            <mask id="D" fill="#fff">
                <use xlink:href="#B"/>
            </mask>
            <path fill="url(#C)" d="M16.866 18.726c1.645 1.115 8.446 7.586 7.213 11.782-5.777 19.657 1.443 23.3 1.443 23.3C18.127 34.736 11.352 11.296.502.54c0 0 11.048 2.69 16.201 10.843 2.538 4.016.163 7.344.163 7.344" mask="url(#D)"/>
        </g>
        <path fill="#242552" d="M373 70c-.81-3.783-1.977-6.052-3-9 .648 5.855 3 9 3 9"/>
        <path fill="#FFFFFE" d="M243 314l4.596 8.08L256 326.5l-8.404 4.42L243 339l-4.596-8.08L230 326.5l8.404-4.42L243 314M222 297l2.475 4.525L229 304l-4.525 2.475L222 311l-2.475-4.525L215 304l4.525-2.475L222 297"/>
        <path fill="#242552" d="M342.441 452L279 211.145l.559-.145L343 451.856l-.559.144M380.441 452L317 211.145l.559-.145L381 451.856l-.559.144"/>
        <path fill="#242552" d="M288 233h38v-1h-38zM295 262h38v-1h-38zM302 288h38v-1h-38zM309 316h38v-1h-38zM317 343h35v-1h-35zM323 371h38v-1h-38zM330 399h38v-1h-38zM337 427h38v-1h-38z"/>
        <path fill="#E8819C" d="M302 239.165s14.347 20.738 27.623 16.18c8.419-2.889 10.218-9.634 12.767-14.083 2.224-3.883-2.04-13.383-6.262-9.235-5.102 5.014-6.505 7.856-13.24 10.658-3.53 1.47-16.124-6.23-16.124-6.23l-4.764 2.71M302.758 238s-3.226-2.452-4.734-6.523c-.127-.342-1.105-3.285-1.019-4.68.071-1.145 1.295-2.498 1.76-1.378 1.826 4.409 3.854 4.955 3.854 4.955s-.696-1.805-.621-2.855c.03-.41.524-.133 1.23.818.568.764 1.695 1.857 2.156 2.613.816 1.342 1.616 4.273 1.616 4.273L302.758 238"/>
        <path fill="#C95F7D" d="M336.52 291.865c4.156-8.23 12.981-14.723 18.576-12.382 6.65 2.782 10.77 20.007 9.75 27.102-1.443 10.032-13.402 28.119-13.602 41.915-.424 29.282-1.684 31.311-5.057 44.848l-3.51.652c-5.424-40.716-7.552-39.333-10.655-57.062-2.59-14.792.047-36.258 4.498-45.073"/>
        <path fill="#242552" d="M356 323.445s-16.825-4.508-22-1.281c0 0 4.89 3.898 14.806 4.818 3.364.312 7.194-3.537 7.194-3.537"/>
        <path fill="url(#E)" d="M343.734 229.538c-.849-4.46-3.132-8.538-3.132-8.538s-4.117 2.593-8.969 10.748c-2.45 4.117-9.285 7.22-10.314 9.617-1.627 3.788 3.416 12.673 5.051 13.957 1.32 1.035 3.432.831 5.362-.246 12.883-7.186 12.724-21.749 12.002-25.538"/>
        <path fill="#E8819C" d="M351.67 291.995c4.148-8.223 20.438-12.717 26.02-10.378 6.637 2.78 3.897 21.407 2.878 28.495-1.44 10.022-13.29 23.04-11.533 37.847C372.017 373.075 362.01 396 362.01 396l-2.78-.313s-1.972-24.42-9.557-55.071c-4.85-19.603-2.445-39.815 1.996-48.621"/>
        <g transform="translate(316 249)">
            <mask id="H" fill="#fff">
                <use xlink:href="#F"/>
            </mask>
            <path fill="url(#G)" d="M69.213 33.576a82.54 82.54 0 0 0-5.366-14.583c-1.182-2.46-5.857-14.51-5.347-17.51.128-.756-17.643 3.668-20.908 3.766-5.718.172-11.442-1.067-16.016-4.682-.76-.601-1.71-.002-2.031.735-2.322 5.339-5.851 9.99-8.905 14.902A63.348 63.348 0 0 0 3.66 31.73C.415 42.727-.11 54.346.411 65.744c.05 1.083 12.847 6.383 17.5 7.222 4.397.793 13.415.709 17.867.328 9.054-.774 34.645-4.664 35.792-9.807 2.319-10.406.374-19.606-2.357-29.911" mask="url(#H)"/>
        </g>
        <path fill="#E8819C" d="M363.172 294.806c3.871-1.557 27.781-16.703 30.502-25.02 1.832-5.596-4.6-22.03-5.929-27.053-1.16-4.383-8.284-3.457-8.354 2.512-.084 7.212-1.278 16.646-1.043 22.83.288 7.586-12.986 20.143-17.296 21.732-4.381 1.615-.824 6.183 2.12 5"/>
        <path fill="#3C4A8D" d="M361.124 393s-.84.906-2.263 1.059c-1.28.137-1.505-.797-1.505-.797s-1.244 3.988-2.697 6.177c-.977 1.472-2.302 3.236-1.304 3.479.694.17 2.45.156 4.02-.83 1.808-1.137 2.38-4.088 3.006-3.477.361.353-.093.975.613.666.483-.212.972-1.633 1.003-2.664.065-2.16-.873-3.613-.873-3.613"/>
        <path fill="#E8819C" d="M370.873 220.414c-7.432-5.963-21.859-6.479-26.403 2.152-1.643 3.12 1.33 10.776 4.138 12.924 3.835 2.934 9.412 2.939 14.12 1.822 4.63-1.1 9.209-3.342 12.03-6.798 3.216-3.94-.44-7.335-3.885-10.1"/>
        <g transform="translate(330 166)">
            <mask id="K" fill="#fff">
                <use xlink:href="#I"/>
            </mask>
            <path fill="url(#J)" d="M2.15 17.035c2.137 3.156 5.36 5.051 8.516 7.1 1.105.717 2.154 1.405 2.19 2.026.1 1.692-.819 3.531-1 5.21-.43 3.975.304 8.796 4.746 10.975 2.05 1.005 4.346 1.103 6.208 2.077 3.053 1.597 2.51 1.715 4.037 3.505 2.99 3.505 7.25 3.312 9.405.016.38-.583 1.111-1.607 1.573-.636.916 1.93 5.882-.621 4.468-3.169-.833-1.501.811-.456 2.573-.334 3.724.258 7.515.75 10.9-.638 3.143-1.29 5.584-4.002 5.862-7.444.299-3.684-2.333-7.742-5.424-10.15-1.495-1.165-3.175-1.81-4.978-2.167-.264-.053 1.42-4.842-.682-9.296-1.593-3.374-8.778 1.746-12.497-4.062-1.132-1.768-2.315-3.624-4.097-4.892-3.107-2.21-6.683-2.291-9.822-1.02-1.05.426-2.382 1.47-3.586 1.5-.922.025-1.5-.61-2.268-1.256-2.806-2.36-5.67-4.565-9.402-4.17C.735 1.07-2.34 10.402 2.15 17.035" mask="url(#K)"/>
        </g>
        <g transform="translate(368 208)">
            <mask id="N" fill="#fff">
                <use xlink:href="#L"/>
            </mask>
            <path fill="url(#M)" d="M9.041 2.246C4.816 3.168 5.968.507 4.067.428 2.372.357.844 1.438.39 2.502-.608 4.842 2.547 8.55 6.675 5.78c2.3-1.542 6.017.493 6.176-.912.098-.857-1.163-3.2-3.81-2.622" mask="url(#N)"/>
        </g>
        <g transform="translate(376 213)">
            <mask id="Q" fill="#fff">
                <use xlink:href="#O"/>
            </mask>
            <path fill="url(#P)" d="M2.258 1.282c.924-.075.656.22 1.515.375.766.137 1.571-.078 1.885-.36.691-.624-.304-1.498-2.465-.964C1.988.631.96-.11.56.227.058.651.643 1.412 2.258 1.282" mask="url(#Q)"/>
        </g>
        <path fill="#C95F7D" d="M351.108 205.483c.2-.61.914-.624 1.561-.148.533.392.45 2.748-.454 2.663-.95-.09-1.45-1.464-1.107-2.515"/>
        <path fill="#E8819C" d="M353.133 220.145c-.26-3.393-.185-8.705.643-9.95 1.17-1.758 6.502-1.652 6.213.822-.212 1.806-.502 8.22-.663 9.573-.228 1.9-6.004 2.001-6.193-.445"/>
        <path fill="#C95F7D" d="M360 211l-.165 2.242c-.914 2.44-2.32 3.653-3.547 3.75-1.707.133-2.793-1.37-3.288-3.052l.217-2.853L360 211"/>
        <path fill="#E8819C" d="M353.833 197.955c1.494-1.568 6.502-3.415 9.274-.128 2.282 2.705 2.114 6.623 1.484 9.544-.676 3.135-3.593 6.736-7.426 6.627-4.292-.123-4.664-3.555-4.902-6.54-.272-3.425-.854-6.961 1.57-9.503"/>
        <path fill="#C95F7D" d="M363.174 205.905c.343-.86 1.125-1.192 1.68-.621.459.473-.227 2.724-1.164 2.716-.608-.006-.902-1.126-.516-2.095"/>
        <g transform="translate(349 194)">
            <mask id="T" fill="#fff">
                <use xlink:href="#R"/>
            </mask>
            <path fill="url(#S)" d="M3.084.439C5.94-.721 8.308 1.813 5.597 5.236 4.081 7.15 4.234 8.988 3.004 9.516.66 10.52-1.884 2.458 3.084.439" mask="url(#T)"/>
        </g>
        <g transform="translate(352 190)">
            <mask id="W" fill="#fff">
                <use xlink:href="#U"/>
            </mask>
            <path fill="url(#V)" d="M15.78 12.542c-2.55-1.76.11-3.978-1.438-6.368-1.356-2.091-3.114-2.343-4.084-4.612-.974-2.277-2.561-.29-6.126-1.078C.734-.267-1.12 4.277 1.371 8.741c1.543 2.763 4.057 3.998 6.506 3.897 2.726-.114 2.817 2.547 4.81 2.92 3.18.598 5.856-1.54 5.856-1.54s-1.04-.284-2.764-1.476" mask="url(#W)"/>
        </g>
        <path fill="url(#X)" d="M369.941 219.248c-1.03-.251-2.25 1.974-3.252 3.325-4.086 5.508-17.382 9.319-16.895-3.893.105-2.834-13.773 3.45-12.735 14.048.678 6.925 1.685 7.063-.963 14.954-.889 2.648 4.211 9.31 23.47 9.318 8.708.003 17.32-2.875 17.76-5.862.617-4.178.965-8.364 1.77-12.522.79-4.084 2.44-9.99 1.731-12.215-1.021-3.204-6.88-6.172-10.886-7.153z"/>
        <path fill="#242552" d="M370.988 224c-1.91 1.539-2.383 5.69-1.679 10.31.793 5.2 4.807 11.69 4.807 11.69l1.884-5.913L370.988 224"/>
        <path fill="url(#Y)" d="M386.12 234.515c-2.033-3.286-3.932-7.606-7.344-10.832-3.691-3.49-12.295-5.687-9.064 7.32 1.523 6.13 4.294 12.867 4.035 19.183-.168 4.096.139 12.764 1.392 14.544 2.384 3.387 16.33 2.338 17.941.983 1.755-1.477 2.244-3.657 1.722-5.854-1.814-7.63-6.554-21.9-8.683-25.344"/>
        <path fill="#3C4A8D" d="M345.124 392.82c-1.417.089-1.8-.535-1.8-.535s-1.192 2.893-3.657 4.16c-2.279 1.173-3.01 1.132-3.596 2.28-.586 1.15 2.58 1.511 4.688 1.128 2.937-.536 2.997-1.565 5.263-2.324-.127 1.66.317 1.478.835 1.49.91.02 1.792-1.395 2.018-2.764.446-2.708-.446-5.255-.446-5.255s-1.218 1.689-3.305 1.82z"/>
        <path fill="#3A5394" d="M364.001 207.592a.5.5 0 1 1 .998-.068c.019.277-.224.398-.499.417-.275.02-.48-.07-.499-.349"/>
        <path fill="#FFFFFE" d="M357.786 201c-.074-.027-7.442-2.738-5.442-9l.588.174c-1.831 5.734 4.786 8.17 5.068 8.271l-.214.555M367.49 204c-.023-.034-2.443-3.461-5.501-5.056-1.37-.714-2.505-1.085-3.507-1.412-1.591-.52-2.742-.895-3.482-2.281l.544-.251c.63 1.18 1.63 1.506 3.14 2 .974.318 2.187.714 3.602 1.452 3.19 1.664 5.613 5.095 5.714 5.24l-.51.308"/>
        <path fill="#242552" d="M356.223 230c-1.1 0-2.185-.196-3.172-.688-2.428-1.211-3.79-3.996-4.051-8.279l.556-.033c.248 4.071 1.508 6.702 3.745 7.818 4.428 2.21 11.326-2.178 11.395-2.223l.304.463c-.232.15-4.62 2.942-8.777 2.942M343.49 268l-.49-.058c.006-.053.629-5.26 2.545-9.942l.455.191c-1.89 4.618-2.505 9.758-2.51 9.809M351.283 349c-.028-.095-2.834-9.59-5.283-18.884l.72-.116c2.447 9.288 5.252 18.776 5.28 18.87l-.717.13M374.973 259l-.455-.025c.003-.108.348-10.812-1.518-17.79l.431-.185c1.894 7.081 1.545 17.891 1.542 18M357.612 257c-5.452 0-12.738-.477-17.612-2.654l.307-.346c8.458 3.777 24.456 2.319 24.617 2.304l.076.405c-.07.007-3.184.291-7.388.291M385.872 269c-3.542 0-7.432-.54-9.872-2.503l.364-.497c5.096 4.1 17.396 1.606 17.52 1.58l.116.615c-.279.059-3.963.805-8.128.805M327.683 252c-.11-.204-2.683-5.048-2.683-10h.396c0 4.77 2.578 9.619 2.604 9.667l-.317.333M335.675 247l-.675-.203c.014-.03 1.422-3.15 1.268-6.584-.05-1.149-.217-2.191-.378-3.2-.387-2.424-.787-4.93.4-9.013l.7.133c-1.156 3.98-.782 6.324-.386 8.806.163 1.021.332 2.078.384 3.253.159 3.552-1.253 6.676-1.313 6.808"/>
        <path fill="#E8819C" d="M354.899 290.38c1.753-.655 2.866-.655 7.016-2.068 2.126-.724 3.53-.073 3.966.78.431.844-.335 3.4-1.84 4.558-.943.727-2.936.48-4.374.633-.656.07-1.583 1.334-2.187 1.748-.426.291-.986.178-.986.178s-.407.533-.635.684c-.326.217-.91.073-.808-.156.625-1.402 1.196-2.884 1.196-2.884s-1.774 2.191-2.156 2.45c-.438.299-.836.048-.75-.128.87-1.757 1.729-3.955 1.729-3.955s-1.834 2.078-2.551 2.193c-.319.05-.616-.295-.489-.416 1.076-1.019 1.992-3.29 2.869-3.618M243 111.812s-14.59-9.058-15.145-13.657c-.803-6.663-.495-18.192-2.727-23.107-2.564-5.645-7.68-5.407-7.703.847-.029 7.558-1.757 19.427 1.969 27.355 3.351 7.129 12.268 11.882 22.3 12.75l1.306-4.188M241.505 206.303c.696-6.476 3.3-18.726 3.495-22.544-2.445.59-7.298-.208-9.686-.759-1.026 8.905.76 17.984 1.095 24.051.137 2.488-.062 5.304-.062 5.304l.628 2.645 4.53-.112s-.37-5.152 0-8.585"/>
        <path fill="#242552" d="M237.432 213c.18.138 1.04 2.58 2.677 2.86.555.094.624-.354 1.004-.892.259-.366 1.007-1.565 1.354-.515.2.605.617 2.39 1.4 3.154 2.367 2.31 3.138 1.982 3.133 2.982-.006 1.093-2.007 1.564-2.962 1.367-1.781-.367-4.332-3.257-5.734-3.297-2.237-.065-.93-5.182-.872-5.659"/>
        <g transform="translate(209 96)">
            <mask id="ab" fill="#fff">
                <use xlink:href="#Z"/>
            </mask>
            <path fill="url(#aa)" d="M39.621 39.174c-8.89-11.14-16.372-18.117-20.366-24.527C14.936 7.713 13.187.387 13.187.387L.967 1.17s-1.546 8.91.38 22.22C3.79 40.282 27.523 50.128 27.014 56.282c-2.161 26.12-.697 41.293-.697 41.293 5.125 2.66 10.274-.253 10.274-.253s2.148-15.348 4.69-26.28c4.523-19.447 5.129-23.361-1.66-31.868" mask="url(#ab)"/>
        </g>
        <path fill="#242552" d="M235 177.031c1.68-3.193 1.42-6.313 2.934-11.031 0 0 .707 9.64-2.502 23L235 177.031"/>
        <path fill="#E8819C" d="M228.263 214.518c.232-3.324 2.263-18.905 3.737-30.518-2.347 1.247-6.179 1.793-8.679 1.182a6.704 6.704 0 0 0-.5.2c-2.377 11.405 1.123 21.01 1.523 27.702.055.92.047 3.294.033 3.686-.038 1.069-.04 2.506-.04 2.506s1.686 2.497 2.527 2.71c.595.148 2.313-.888 2.313-.888s-1.075-4.285-.914-6.58"/>
        <path fill="#242552" d="M224.526 216c.203.129-.51 2.521 1.916 2.959.62.112 1.01-.657 1.439-1.158.293-.342 1.635-1.022 2.025-.044.225.563.732 2.095 1.311 3.03 1.572 2.54 1.681 2.65 1.777 3.306.147 1.01-2.46 1.185-3.586.483-1.214-.759-2.218-2.203-2.727-3.026-.295-.477-1.101-.904-1.86-1.014-1.614-.233-.362-4.092-.295-4.536"/>
        <g transform="translate(192 99)">
            <mask id="ae" fill="#fff">
                <use xlink:href="#ac"/>
            </mask>
            <path fill="url(#ad)" d="M38.907 38.938C17.547 18.22 22.676 2.262 22.676 2.262L7.462.556S.391 14.301.195 27.766c-.251 17.346 29.737 23.326 28.574 29.98-3.509 20.082.28 42.423.28 42.423 5.138 2.662 10.16.484 10.16.484s1.833-12.518 5.155-23.26c7.566-24.47.332-32.841-5.457-38.455" mask="url(#ae)"/>
        </g>
        <g transform="translate(192 36)">
            <mask id="ah" fill="#fff">
                <use xlink:href="#af"/>
            </mask>
            <path fill="url(#ag)" d="M21.879 33.614c5.144.214 8.625-.628 13.693-1.741-.72-4.531-.098-8.337.201-10.868.138 5.742.929 6.398 1.027 10.531.468-.098 3.475-.79 3.944-.88-2.54-.947-.802-11.95-3-18.17-3.161-8.943-6.705-7.981-8.358-8.523-.927-.304-2.859-4.023-8.134-3.574C14.52.96 9.883 3.653 5.404 14.783c-1.149 2.856-2.308 5.551-5.071 8.43 2.488 1.24 5.783 4.694 8.107 6.336 3.814 2.694 8.707 3.868 13.439 4.065z" mask="url(#ah)"/>
        </g>
        <g transform="translate(215 67)">
            <mask id="ak" fill="#fff">
                <use xlink:href="#ai"/>
            </mask>
            <path fill="url(#aj)" d="M2.816 21.29C-.992 18.636.165.131 4.331.084c4.171-.048 8.284 5.984 9.528 14.99.395 2.86.168 5.504-4.35 5.704-4.718.208-4.495 2.044-6.693.512" mask="url(#ak)"/>
        </g>
        <path fill="#E8819C" d="M222.458 73c1.375 3.571 2.905 13.717-.626 15.519-4.821 2.46-11.163 1.533-16.337-.434-5.09-1.935-6.058-17.561-1.868-20.183 6.83-4.274 15.028-4.782 18.831 5.098z"/>
        <path fill="#C95F7D" d="M221.996 55.837c-.035-.782-.71-1.032-1.443-.682-.604.287-.865 2.624.014 2.818.925.205 1.488-.787 1.429-2.136"/>
        <path fill="#E8819C" d="M217.796 59.805c-.873-2.154-7.44-6.668-7.686-3.97-.184 2.017-1.3 6.491-1.082 13.433.042 1.328 8.403 2.972 8.403.303 0-5.423.983-8.243.365-9.766z"/>
        <path fill="#C95F7D" d="M209.183 57L209 58.593c.396 2.43 2.78 7.398 4.71 7.407 1.555.007 2.633-.985 3.622-2.339l.668-2.567L209.183 57"/>
        <path fill="#E8819C" d="M222.15 48.383c-1.025-1.91-5.46-4.961-9.18-2.407-3.062 2.1-3.572 5.908-3.92 8.93-.478 4.169 2.509 8.722 5.111 9.068 2.571.343 5.984-2.798 7.298-6.187 1.28-3.301 2.354-6.306.691-9.404L110 267"/>
        <path fill="#C95F7D" d="M208.978 53.108c-.108-.87-.576-1.323-1.62-1.008-.704.214-.375 2.54 1.033 2.896.3.075.709-.907.587-1.888"/>
        <path fill="#F9CF23" d="M212.005 46.633c.14 2.545 2.777 2.716 5.097 4.325 2.124 1.472 3.181 4.967 7.836 3.812 0 0 1.008-9.998-5.12-13.377-2.746-1.513-8.012 1.58-7.813 5.24z"/>
        <path fill="#F9CF23" d="M216.288 47.834c-.963 2.593-4.161 5.404-8.288 3.587 0 0 1.163-9.055 6.981-9.416 2.513-.155 2.342 3.044 1.307 5.829z"/>
        <g transform="translate(198 65)">
            <mask id="an" fill="#fff">
                <use xlink:href="#al"/>
            </mask>
            <path fill="url(#am)" d="M2.012 4.532C3.727 2.089 8.36 1.115 10.666.21c.32.779 1.723 8.894 7.418 9.837 4.45.735 4.47-6.483 3.689-8.46 4.882 3.01 9.287 15.063 7.15 18.861-3.396 6.034-2.341 4.956-2.687 10.35-.598 9.336-23.52 11.606-24.726 1.033C-.015 18.464-.341 7.885 2.012 4.532" mask="url(#an)"/>
        </g>
        <path fill="#242552" d="M209.085 55.392a.437.437 0 1 1 .824.294c-.081.227-.262.253-.49.172-.228-.081-.415-.24-.334-.466M193.152 115l-.152-.5c.044-.009 4.425-.94 6.384-6.5l.616.14c-2.068 5.868-6.654 6.822-6.848 6.86M216.273 111c-.003-.024-.393-2.425-1.273-5.801l.711-.199c.89 3.414 1.285 5.85 1.289 5.874l-.727.126M214.982 109l-1.09-.027c0-.013.192-1.343-.892-2.856l1.05-.117c1.138 1.587.94 2.943.932 3"/>
        <path fill="#242552" d="M215.034 108l-.034-.633c1.9-.254 2.727-1.356 2.735-1.367l.265.477c-.037.051-.92 1.25-2.966 1.523"/>
        <path fill="#242552" d="M217.652 109l-.096-.724c.868-.372 1.685-1.407 1.943-2.46.127-.52.12-1.025-.025-1.5-.232-.763-.476-.674-1.285-.25-.3.158-.674.354-1.112.506l-.077-.73c.419-.145.767-.328 1.074-.49.79-.414 1.36-.713 1.76.606.206.68.22 1.426.04 2.16-.31 1.267-1.225 2.453-2.222 2.882"/>
        <path fill="#242552" d="M211.047 110h-.216c-4.39-.037-11.078-2.006-14.831-5.586l.424-.405c3.64 3.472 10.142 5.383 14.412 5.418 6.325.048 11.176-2.23 13.641-6.427l.523.28c-2.548 4.338-7.498 6.72-13.953 6.72"/>
        <path fill="#FFFFFE" d="M216.495 78c-3.793 0-8.146-4.576-8.495-8.953l.567-.047c.35 4.385 4.779 8.465 7.981 8.42 2.3-.029 3.679-2.101 3.883-5.836l.569.032c-.303 5.509-2.915 6.364-4.445 6.383l-.06.001M222.672 96l-.391-.093c.556-4.906.722-5.292 1.214-6.437.203-.473.456-1.061.821-2.18 1.157-3.538-1.48-11.636-2.316-14.033l.354-.257c1.097 3.148 3.52 10.866 2.32 14.534a23.324 23.324 0 0 1-.843 2.237c-.46 1.073-.616 1.434-1.16 6.229"/>
        <path fill="#242552" d="M236.38 179l-.592-.127c4.254-17.918 6.39-26.912-2.788-38.527l.486-.346c9.345 11.829 7.054 21.48 2.894 39"/>
        <g transform="translate(229 103)">
            <mask id="aq" fill="#fff">
                <use xlink:href="#ao"/>
            </mask>
            <path fill="url(#ap)" d="M.547 28.445l9.92-22.382a1.76 1.76 0 0 1 1.22-1.007L32.776.322c.442-.1.794.373.578.775l-10.793 20.06L.547 28.444" mask="url(#aq)"/>
        </g>
        <g transform="translate(212 112)">
            <mask id="at" fill="#fff">
                <use xlink:href="#ar"/>
            </mask>
            <path fill="url(#as)" d="M18.922 18.46L.212 7.34 22.039.3l3.564 2.29-6.68 15.872" mask="url(#at)"/>
        </g>
        <path fill="#DEF1F2" d="M231.209 131L213 120.547l.046-.636 21.2-6.911 3.754 2.275L231.209 131"/>
        <path fill="#883883" d="M249.982 112.572c.103.499-.254 1.095-.797 1.332-.542.236-1.065.023-1.167-.476-.103-.499.254-1.095.797-1.332.542-.236 1.065-.023 1.167.476"/>
        <path fill="#E8819C" d="M219 113.218s-15.316-9.228-15.87-13.853c-.803-6.7 1.295-20.155-.937-25.098-2.563-5.676-8.744-3.458-8.768 2.831-.028 7.6-1.757 19.537 1.97 27.51 3.35 7.169 9.66 11.518 19.692 12.392l3.913-3.782"/>
        <g transform="translate(190 70)">
            <mask id="aw" fill="#fff">
                <use xlink:href="#au"/>
            </mask>
            <path fill="url(#av)" d="M13.826 21.544c4.744-.834-.544-22.2-4.889-21.37C3.867 1.143 1.05 6.523.52 16.576c-.13 2.459-.018 5.893 3.23 6.038 1.945.088 5.874-.331 10.077-1.07" mask="url(#aw)"/>
        </g>
        <path fill="#FFFFFE" d="M205.947 87l-.442-.068c.007-.068.606-6.896-2.505-15.7l.406-.232c3.165 8.957 2.548 15.93 2.541 16"/>
        <path fill="#E8819C" d="M230.927 117.176c-.523-.786-1.822-2.072-2.588-2.572-1.905-1.246-6.207-1.48-8.406-1.813-2.24-.34-6.933-.791-6.933-.791s3.84 4.395 4.605 5.034c1.598 1.337 3.254.712 4.484 1.346.72.371 1.78 1.058 2.358 1.61.694.66 1.274.59 1.274.59s.703.997.976 1.186c.577.4 1.013.165 1.013.165l-1.518-4.462 1.669 1.962s.688 1.466 1.11 1.828c.486.417.984.205.984.205l-1.568-4.832s1.521 1.069 2.284 2.38c.31.535 1.329.342 1.329.342s-.76-1.707-1.073-2.178"/>
        <path fill="#242552" d="M201 424h-8.675v-.551h8.087v-5.898h-52.824v4.95H147V417h54v7M138.588 431.449h52.824v-5.898h-52.824v5.898zM138 432h54v-7h-54v7zM206 439h-33.4v-.551h32.812v-5.898h-52.824v6.174H152V432h54v7"/>
        <path fill="#242552" d="M171 439h2v-1h-2zM167 439h2v-1h-2zM199 446h-54v-7h19.813v.551h-19.225v5.898h52.824v-6.173H199V446M199 453h-54v-5.479h.588v4.905h52.824V446H199v7M400.588 438.449h52.824v-5.898h-52.824v5.898zM400 439h54v-7h-54v7zM470 446h-33.4v-.551h32.812v-5.898h-52.824v6.173H416V439h54v7M431 447h2v-1h-2zM428 447h2v-1h-2z"/>
        <path fill="#242552" d="M461 453h-54v-7h19.813v.551h-19.225v5.898h52.824v-6.174H461V453"/>
    </g>
</svg>
