<svg xmlns="http://www.w3.org/2000/svg" width="177" height="45" viewBox="0 0 177 45">
    <defs>
        <linearGradient id="a" x1="58.908%" x2="41.134%" y1="43.751%" y2="56.387%">
            <stop offset="0%" stop-color="#232020" stop-opacity="0"/>
            <stop offset="100%"/>
        </linearGradient>
    </defs>
    <g fill="none" fill-rule="nonzero">
        <path fill="#AE00FF" d="M39 45L0 26.92v-8.84L39 0v9.407L9.811 22.42 39 35.51z"/>
        <path fill="url(#a)" d="M14 20.145L9.659 22 0 17.9 4.265 16z" opacity=".2"/>
        <path fill="#242424" d="M58 15.994V.007h6.343a8.724 8.724 0 0 1 6.232 2.27 7.522 7.522 0 0 1 2.422 5.72 7.511 7.511 0 0 1-2.434 5.714 8.694 8.694 0 0 1-6.22 2.283H58zm3.58-3.172h2.763a4.82 4.82 0 0 0 3.528-1.34 4.704 4.704 0 0 0 1.346-3.467 4.579 4.579 0 0 0-1.363-3.458 4.748 4.748 0 0 0-3.51-1.36H61.58v9.625zM76 16V0h4v16zM91.844 16.993a8.779 8.779 0 0 1-6.373-2.374 8.136 8.136 0 0 1-2.466-6.106 8.129 8.129 0 0 1 2.521-6.017A8.61 8.61 0 0 1 91.82.003c1.256-.03 2.51.156 3.7.552 1.062.4 2.046.976 2.909 1.703L96.096 5a8.126 8.126 0 0 0-2.04-1.264 6.204 6.204 0 0 0-2.352-.398 4.493 4.493 0 0 0-3.426 1.514 5.17 5.17 0 0 0-1.403 3.643 5.142 5.142 0 0 0 1.427 3.733 4.875 4.875 0 0 0 3.645 1.478 5.92 5.92 0 0 0 3.481-.986v-2.344H91.71V7.255H99v7.121a10.988 10.988 0 0 1-7.156 2.617zM102 16V0h4v16zM113.14 16V3.244H108V0h14v3.244h-5.14V16zM121 15.971L127.872 0h3.25L138 15.971h-3.69l-1.467-3.524h-6.785L124.592 16 121 15.971zm6.321-6.636h4.26l-2.127-5.157-2.133 5.157zM141 16V0h3.67v12.802H153V16zM66.338 44.994a7.971 7.971 0 0 1-5.958-2.426 8.382 8.382 0 0 1-2.378-6.053 8.783 8.783 0 0 1 3.972-7.127 8.551 8.551 0 0 1 8.05-.692 10.17 10.17 0 0 1 2.741 1.98l-2.136 2.492a8.107 8.107 0 0 0-1.961-1.398 5.12 5.12 0 0 0-2.219-.434 4.33 4.33 0 0 0-3.375 1.493 5.722 5.722 0 0 0 0 7.343 4.319 4.319 0 0 0 3.375 1.504 5.01 5.01 0 0 0 2.254-.47 8.608 8.608 0 0 0 2.02-1.456L73 42.217a8.729 8.729 0 0 1-2.87 2.117 9.32 9.32 0 0 1-3.792.66zM89.575 42.537a8.726 8.726 0 0 1-12.15 0c-3.233-3.34-3.233-8.735 0-12.074a8.726 8.726 0 0 1 12.15 0c3.233 3.34 3.233 8.735 0 12.074zm-9.53-2.378a4.501 4.501 0 0 0 3.472 1.505 4.426 4.426 0 0 0 3.472-1.493c1.82-2.09 1.82-5.252 0-7.342a4.49 4.49 0 0 0-3.472-1.504 4.443 4.443 0 0 0-3.471 1.492c-1.813 2.093-1.813 5.25 0 7.342zM95 45V29h3.191l7.396 9.83V29H109v16h-2.947L98.42 34.823V45zM117.14 45V32.244H112V29h14v3.244h-5.14V45zM129 45V29h7.418c2.05 0 3.615.538 4.713 1.62a4.985 4.985 0 0 1 1.384 3.706c.142 2.247-1.29 4.298-3.463 4.961L143 45h-4.188l-3.504-5.117h-2.745V45H129zm3.557-8.228h3.604a2.94 2.94 0 0 0 2.009-.63c.478-.426.74-1.041.712-1.678a2.037 2.037 0 0 0-.736-1.734 3.26 3.26 0 0 0-2.055-.579h-3.534v4.62zM159.575 42.537a8.726 8.726 0 0 1-12.15 0c-3.233-3.34-3.233-8.735 0-12.074a8.726 8.726 0 0 1 12.15 0c3.233 3.34 3.233 8.735 0 12.074zm-9.53-2.378a4.49 4.49 0 0 0 3.472 1.505 4.443 4.443 0 0 0 3.472-1.493c1.812-2.093 1.812-5.249 0-7.342a4.501 4.501 0 0 0-3.472-1.504 4.426 4.426 0 0 0-3.471 1.492c-1.813 2.093-1.813 5.25 0 7.342zM165 45V29h3.67v12.802H177V45z"/>
    </g>
</svg>
